<svg version="1.1" xmlns="http://www.w3.org/2000/svg" xmlns:xlink="http://www.w3.org/1999/xlink" width="1024" height="1024" viewBox="0 0 1024 1024"><rect width="100%" height="100%" fill="white"/><path stroke="none" fill="black" fill-rule="evenodd" d="M437.50,873.02C326.77,870.42 190.16,859.71 161.94,851.40C146.19,846.77 132.30,836.09 126.73,824.32C123.79,818.12 123.50,816.63 123.50,807.98C123.50,799.25 123.77,797.91 126.77,791.82C131.21,782.79 139.14,775.60 151.15,769.69C159.56,765.56 176.38,760.00 180.48,760.00C181.85,760.00 182.03,761.47 181.78,770.62L181.50,781.24L172.85,784.05C160.65,788.03 153.08,792.10 148.32,797.26C143.55,802.45 142.44,806.21 144.00,812.01C146.41,820.94 157.72,828.53 173.81,831.98C197.99,837.18 284.81,844.34 381.00,849.07C415.05,850.75 572.09,851.43 614.14,850.09C736.05,846.20 834.05,838.13 857.42,830.04C872.94,824.67 882.07,814.67 879.97,805.35C878.14,797.27 869.80,790.64 854.00,784.69L844.50,781.12L844.85,770.81C845.04,765.14 845.36,760.33 845.56,760.12C846.34,759.31 863.89,765.38 871.50,769.08C891.25,778.71 901.17,792.08 901.12,809.01C901.06,828.36 885.00,845.26 860.00,852.28C839.26,858.10 757.26,865.89 673.50,869.99C610.24,873.08 500.49,874.49 437.50,873.02ZM458.00,822.39C369.02,820.42 313.08,817.27 247.50,810.53C217.66,807.46 205.60,805.53 201.53,803.17C199.86,802.20 197.27,799.18 195.77,796.46L193.05,791.50L193.02,736.23L193.00,680.96L195.25,681.46C199.56,682.40 254.09,688.24 279.50,690.47C341.00,695.88 396.60,698.05 490.50,698.70C574.29,699.28 610.54,698.64 676.00,695.45C729.04,692.86 804.44,686.36 814.50,683.50C817.25,682.71 822.80,681.77 826.83,681.40L834.15,680.73L833.91,719.11C833.55,774.12 832.79,791.66 830.55,795.94C825.65,805.31 822.20,806.28 777.50,810.93C727.01,816.19 689.73,818.56 618.50,821.05C588.75,822.09 483.93,822.97 458.00,822.39ZM455.50,676.42C363.87,674.23 288.22,669.78 228.00,663.01C223.32,662.49 216.80,661.84 213.50,661.58C210.20,661.31 204.24,660.79 200.25,660.42L193.00,659.74L193.00,648.76L193.00,637.78L196.25,638.34C199.50,638.91 205.91,639.60 235.00,642.50C243.53,643.35 254.78,644.48 260.00,645.01C271.78,646.21 337.39,650.57 365.00,651.99C444.50,656.08 588.09,656.08 671.00,651.99C711.78,649.98 766.47,645.73 799.50,642.02C808.85,640.96 820.44,639.79 825.25,639.41L834.00,638.72L834.00,649.36C834.00,658.42 833.76,660.00 832.41,660.00C831.54,660.00 820.62,661.12 808.16,662.49C719.95,672.16 649.51,675.74 535.00,676.36C498.43,676.56 462.65,676.59 455.50,676.42ZM400.08,613.01C389.82,610.24 380.08,605.19 369.65,597.24C346.34,579.49 339.26,576.00 326.50,576.00C316.70,576.00 308.92,578.98 295.09,588.02C274.00,601.81 267.18,604.40 252.00,604.37C238.33,604.35 229.05,601.05 218.55,592.50C215.51,590.02 212.39,588.00 211.60,588.00C208.67,588.00 186.38,577.01 183.34,574.07C175.14,566.12 173.68,556.22 176.96,530.50C178.68,516.97 180.67,505.99 181.41,506.00C181.46,506.00 185.78,507.54 191.00,509.43C197.24,511.68 200.38,513.31 200.16,514.18C198.68,519.93 195.00,550.16 195.47,552.69C195.81,554.50 197.38,556.99 199.11,558.44C201.82,560.72 203.03,561.00 210.17,561.00C217.94,561.00 218.26,561.10 220.84,564.17C228.19,572.91 231.37,575.88 236.21,578.53C240.69,580.97 242.87,581.47 250.50,581.78C262.28,582.26 267.31,580.48 283.23,570.20C298.67,560.22 299.93,559.59 310.52,556.52C325.49,552.19 340.02,553.49 354.48,560.47C360.83,563.54 366.93,567.77 383.86,580.86C393.93,588.65 405.58,592.97 416.57,592.99C430.45,593.02 441.49,589.10 455.13,579.30C475.41,564.74 481.48,561.37 493.50,557.98C503.52,555.16 517.54,554.91 527.00,557.38C536.33,559.82 548.21,565.90 557.88,573.19C571.61,583.53 576.14,586.42 583.50,589.54C590.02,592.30 591.35,592.50 603.00,592.48C614.68,592.45 615.96,592.25 622.52,589.42C629.88,586.24 635.96,582.28 649.89,571.59C664.55,560.35 675.38,556.03 689.04,556.01C702.35,555.99 713.22,559.99 725.83,569.55C741.68,581.57 749.52,584.59 762.85,583.79C772.99,583.18 779.17,579.98 789.50,569.99C793.90,565.74 798.48,561.75 799.68,561.13C800.89,560.51 806.43,560.00 812.00,560.00C817.57,560.00 822.94,559.57 823.93,559.04C824.92,558.51 826.30,556.68 827.01,554.97C828.67,550.97 827.72,534.93 825.08,522.50C824.03,517.55 823.25,513.50 823.34,513.50C823.43,513.49 827.44,511.58 832.26,509.25C837.09,506.91 841.21,505.00 841.43,505.00C841.65,505.00 842.74,508.94 843.85,513.75C848.69,534.77 849.34,558.77 845.27,566.56C843.18,570.57 839.49,574.84 835.22,578.22C833.57,579.53 830.11,580.10 820.77,580.62L808.50,581.30L800.41,588.93C776.40,611.59 745.69,611.76 716.00,589.39C711.88,586.28 705.66,582.39 702.19,580.75C696.40,578.00 695.21,577.79 687.69,578.21C681.28,578.56 678.31,579.27 674.00,581.47C668.97,584.04 658.67,591.32 655.00,594.90C652.13,597.70 637.04,607.09 631.42,609.58C622.91,613.34 614.57,614.97 603.70,614.99C583.27,615.02 571.43,610.23 547.00,592.03C520.59,572.37 500.44,572.37 474.00,592.04C450.15,609.79 440.33,613.88 420.00,614.59C409.67,614.94 406.21,614.67 400.08,613.01ZM460.00,523.95C349.17,521.97 272.50,515.93 212.50,504.42C203.48,502.69 186.00,496.93 186.00,495.68C186.00,493.93 192.17,486.02 196.54,482.18C205.83,473.99 229.16,464.28 255.56,457.61C275.12,452.66 300.88,448.02 312.42,447.36L324.00,446.70L324.00,462.35L324.00,478.00L317.96,478.00C311.21,478.00 307.74,476.32 305.49,471.98C304.35,469.78 303.55,469.35 301.29,469.72C278.33,473.48 236.57,483.56 233.68,486.04C231.16,488.19 303.05,495.26 360.00,498.45C471.70,504.71 629.73,502.81 733.50,493.96C763.84,491.37 792.56,487.74 792.31,486.53C791.81,484.15 731.89,470.00 722.31,470.00C720.75,470.00 719.65,470.80 719.05,472.37C717.32,476.92 713.33,479.00 706.37,479.00L700.00,479.00L700.00,473.66C700.00,470.72 700.29,462.92 700.64,456.32C701.26,444.85 701.38,444.35 703.39,444.69C774.40,456.67 810.77,467.58 826.98,481.76C831.38,485.61 837.00,492.74 837.00,494.47C837.00,495.78 818.74,503.89 812.50,505.36C795.51,509.35 769.96,512.57 716.00,517.52C661.26,522.53 544.72,525.46 460.00,523.95ZM490.39,484.31C489.23,484.08 486.98,482.54 485.39,480.89C482.58,477.96 482.49,477.54 482.16,465.84L481.83,453.80L472.16,454.38C466.85,454.69 456.20,455.20 448.50,455.50C423.23,456.50 396.75,458.10 381.61,459.56C373.42,460.35 366.11,461.00 365.36,461.00C364.44,461.00 364.00,462.30 364.00,465.05C364.00,473.64 359.55,478.00 350.78,478.00L345.00,478.00L345.00,386.00L345.00,294.00L334.50,294.00L324.00,294.00L324.00,363.03C324.00,417.37 323.73,432.15 322.75,432.47C322.06,432.70 317.79,433.03 313.25,433.20L305.00,433.51L305.00,359.30C305.00,308.76 305.34,284.36 306.07,282.80C307.98,278.70 311.99,276.60 318.73,276.17L325.00,275.77L325.00,271.54C325.00,267.58 324.74,267.19 321.11,265.55C318.96,264.58 315.39,261.93 313.17,259.65C299.96,246.09 299.73,227.11 312.47,201.50C317.68,191.05 327.21,177.03 329.62,176.27C331.41,175.71 331.97,179.64 331.99,192.78C332.00,204.57 331.87,205.31 328.86,211.27C321.63,225.60 320.02,236.71 324.13,244.01C328.84,252.40 338.92,251.85 343.52,242.96C346.56,237.09 345.18,225.38 340.07,213.61C338.16,209.19 337.98,207.18 338.23,192.75L338.50,176.77L341.40,179.63C348.04,186.21 358.71,206.27 362.08,218.55C365.01,229.23 364.96,239.52 361.94,247.49C359.23,254.67 350.49,264.02 344.74,265.92C341.17,267.10 341.00,267.36 341.00,271.58L341.00,276.00L347.03,276.00C355.58,276.00 359.62,277.94 362.01,283.21C363.88,287.34 363.96,290.36 363.98,363.25L364.00,439.00L368.75,438.97C371.36,438.95 378.23,438.50 384.00,437.97C403.29,436.19 438.27,434.09 460.25,433.39L482.00,432.69L482.00,352.51L482.00,272.33L485.36,268.44C488.64,264.65 488.92,264.54 496.36,264.17L504.00,263.78L504.00,259.09C504.00,254.66 503.81,254.33 500.56,253.16C495.31,251.26 487.23,243.39 484.06,237.10C478.44,225.94 477.81,214.67 482.04,201.00C486.27,187.36 502.13,158.61 506.81,156.10C508.53,155.18 508.82,155.48 509.36,158.78C509.70,160.83 509.98,167.72 509.99,174.10L510.00,185.71L505.42,195.50C498.96,209.33 497.34,216.46 498.97,223.78C500.75,231.73 505.94,237.00 512.00,237.00C515.57,237.00 516.83,236.40 520.02,233.21C524.76,228.48 526.40,222.86 525.47,214.60C524.80,208.60 520.00,194.39 517.35,190.53C515.77,188.21 515.36,156.00 516.92,156.00C518.57,156.00 528.30,170.27 533.61,180.50C541.27,195.22 544.26,205.35 544.39,217.00C544.48,224.79 544.07,227.64 542.09,232.84C539.10,240.73 531.95,248.80 525.05,252.08C520.05,254.45 520.00,254.52 520.00,259.13L520.00,263.78L527.60,264.17C534.89,264.53 535.34,264.70 538.60,268.26L542.00,271.97L542.00,352.02C542.00,415.17 542.26,432.15 543.25,432.48C543.94,432.71 556.65,433.39 571.50,434.00C598.39,435.10 650.12,438.47 657.25,439.59L661.00,440.18L661.00,362.82L661.00,285.46L663.51,281.77C666.19,277.82 671.29,275.71 677.36,276.03C682.82,276.33 683.00,276.20 683.00,272.02C683.00,268.25 682.73,267.90 678.11,265.56C675.42,264.19 671.62,261.21 669.67,258.93C657.57,244.79 657.58,225.59 669.69,201.55C676.93,187.17 684.89,176.00 687.90,176.00C688.65,176.00 689.00,180.88 689.00,191.40L689.00,206.81L685.01,215.15C680.01,225.60 678.58,232.66 680.03,239.65C683.02,254.06 697.98,254.81 702.19,240.76C703.84,235.24 702.11,224.35 698.15,215.33C695.05,208.28 695.00,207.90 695.00,192.40L695.00,176.63L698.14,179.56C705.28,186.25 715.35,204.98 719.09,218.54C720.48,223.58 721.32,229.61 721.39,235.00C721.48,242.57 721.15,244.21 718.37,250.00C714.70,257.66 710.40,262.25 703.80,265.60C699.14,267.96 699.00,268.17 699.00,272.52L699.00,277.00L705.85,277.00C711.75,277.00 713.08,277.34 715.36,279.46C716.83,280.82 718.47,283.09 719.01,284.53C719.63,286.16 720.00,314.90 720.00,361.64L720.00,436.16L717.25,435.60C715.74,435.30 711.46,434.54 707.75,433.92L701.00,432.79L701.00,363.90L701.00,295.00L690.50,295.00L680.00,295.00L680.00,387.00L680.00,479.00L673.87,479.00C668.13,479.00 667.52,478.77 664.37,475.43C661.41,472.29 661.00,471.21 661.00,466.52L661.00,461.19L656.25,460.60C637.86,458.32 544.80,453.39 542.85,454.59C542.38,454.88 542.00,460.23 542.00,466.48C542.00,477.25 541.86,478.01 539.41,480.92C537.00,483.79 536.37,484.00 530.16,484.00L523.50,484.00L523.83,383.50L524.17,283.00L512.58,283.00L501.00,283.00L501.00,384.00L501.00,485.00L496.75,484.86C494.41,484.79 491.55,484.54 490.39,484.31Z"/></svg>