<svg version="1.1" xmlns="http://www.w3.org/2000/svg" xmlns:xlink="http://www.w3.org/1999/xlink" width="1024" height="1024" viewBox="0 0 1024 1024"><rect width="100%" height="100%" fill="white"/><path stroke="none" fill="black" fill-rule="evenodd" d="M481.63,767.21C481.32,766.72 484.84,753.08 489.44,736.91C494.04,720.73 499.05,701.80 500.57,694.83C503.91,679.55 504.03,679.87 491.82,671.74C487.24,668.69 479.32,662.35 474.22,657.65C454.62,639.58 427.25,621.15 399.13,607.08C387.68,601.34 364.58,591.00 363.23,591.00C362.05,591.00 368.93,595.34 383.00,603.47C400.25,613.45 422.00,627.64 422.00,628.92C422.00,629.47 418.74,630.86 414.75,632.02C397.46,637.04 377.38,643.31 376.00,644.13C375.06,644.69 376.36,644.83 379.50,644.51C420.67,640.33 434.76,640.16 442.00,643.76C447.49,646.49 469.43,662.83 473.31,667.08C476.67,670.76 476.22,671.58 468.47,676.02C456.41,682.92 442.54,686.00 423.54,686.00C412.68,686.00 408.46,685.55 400.45,683.51C373.96,676.79 349.83,658.55 331.85,631.65C322.88,618.23 309.69,592.25 301.56,572.00C296.89,560.35 296.34,558.30 297.56,557.05C299.50,555.06 343.67,552.79 371.00,553.28C390.10,553.62 392.03,553.83 399.25,556.32C408.85,559.62 429.31,569.77 438.00,575.54C445.25,580.35 455.86,590.66 462.14,599.00C468.27,607.14 475.69,623.18 478.11,633.50C479.26,638.45 480.50,643.59 480.86,644.92C481.28,646.51 483.25,648.24 486.59,649.97C489.39,651.42 494.74,654.78 498.48,657.45L505.27,662.29L504.56,647.90C503.56,627.57 501.55,608.22 497.54,580.50C493.35,551.45 492.29,537.95 490.98,497.00C490.43,479.68 489.53,461.45 488.98,456.50C488.43,451.55 487.71,444.12 487.36,440.00L486.74,432.50L502.92,432.50C518.30,432.50 519.11,432.60 519.59,434.52C519.87,435.63 519.07,441.93 517.80,448.52C515.63,459.84 515.50,462.78 515.52,502.00L515.55,543.50L520.21,573.50C526.64,614.85 527.45,624.18 527.48,657.07L527.50,685.64L533.00,682.32C536.02,680.50 539.43,679.00 540.56,679.00C542.20,679.00 542.89,677.96 543.94,673.86C544.66,671.03 546.98,665.29 549.09,661.11C558.29,642.84 573.37,630.33 594.04,623.84C601.13,621.61 602.90,621.50 630.00,621.50C662.79,621.50 679.00,623.15 679.00,626.49C679.00,629.16 666.74,652.28 659.93,662.47C644.01,686.28 623.19,702.87 603.24,707.65C593.59,709.96 577.51,709.74 567.86,707.17C555.10,703.78 543.69,696.93 545.61,693.82C546.85,691.82 562.04,682.37 568.15,679.80C578.42,675.48 587.60,674.59 602.13,676.48C608.81,677.35 614.47,677.87 614.70,677.63C614.93,677.40 609.36,675.30 602.31,672.97C595.27,670.64 589.15,668.53 588.71,668.28C587.24,667.45 595.40,661.90 607.76,655.34C614.56,651.74 619.93,648.60 619.70,648.37C618.75,647.42 600.53,654.56 587.50,661.00C572.31,668.49 560.69,675.91 540.50,691.02C533.35,696.37 526.58,701.03 525.46,701.37C523.70,701.91 522.93,704.48 519.79,720.06C517.73,730.30 515.14,740.16 513.83,742.81C511.45,747.61 508.39,750.22 491.42,762.00C482.07,768.49 482.34,768.35 481.63,767.21ZM538.50,555.29C535.02,554.45 534.92,553.51 537.84,548.95C541.76,542.83 555.52,527.81 558.81,526.08C560.29,525.29 568.48,522.70 577.00,520.32L592.50,515.98L578.29,516.47C565.13,516.92 564.12,516.83 564.69,515.23C565.66,512.46 569.82,507.20 579.48,496.52C591.71,482.99 585.32,487.65 567.88,504.97C560.14,512.66 548.37,525.95 540.62,535.75C533.12,545.24 526.60,553.00 526.12,553.00C523.75,553.00 522.50,546.08 522.61,533.50C522.69,522.88 523.12,519.31 524.93,514.00C529.71,500.01 542.50,483.77 555.81,474.79C564.72,468.78 582.08,460.34 594.31,456.08C603.65,452.83 620.73,449.00 625.91,449.00C628.99,449.00 629.00,449.01 629.00,454.56C629.00,465.31 624.62,486.79 619.94,499.00C613.89,514.77 602.13,531.75 591.23,540.43C584.24,546.01 571.64,552.34 563.36,554.44C557.62,555.90 543.09,556.39 538.50,555.29ZM419.50,433.34C411.91,432.13 399.87,428.54 393.38,425.54C386.38,422.31 375.77,415.63 372.61,412.46C369.42,409.28 371.10,409.04 376.25,411.94C397.95,424.18 424.21,426.30 444.02,417.41L450.02,414.72L459.76,417.27C465.12,418.67 471.19,420.10 473.25,420.45C475.31,420.80 477.00,421.55 477.00,422.11C477.00,423.49 465.78,428.48 456.83,431.08C451.36,432.66 446.08,433.28 436.00,433.51C428.57,433.68 421.15,433.61 419.50,433.34ZM536.50,428.35C532.65,427.53 529.13,426.49 528.67,426.05C528.21,425.60 531.04,424.01 534.95,422.52C538.86,421.02 544.41,418.03 547.28,415.87C554.05,410.76 555.85,410.39 563.67,412.51C579.52,416.80 603.73,409.89 617.24,397.22C620.13,394.51 621.83,394.69 620.24,397.53C618.12,401.32 607.03,411.59 600.21,416.08C582.35,427.85 557.05,432.72 536.50,428.35ZM490.84,425.12C481.85,423.21 477.53,416.35 478.17,404.99C478.66,396.30 484.18,384.87 493.46,373.32C506.29,357.34 546.47,324.25 579.50,302.46C610.45,282.04 614.65,280.05 622.41,282.12C633.57,285.10 635.02,295.39 626.10,308.35C621.57,314.94 614.44,320.24 595.66,330.99C578.56,340.78 565.78,349.06 560.00,354.10L556.50,357.14L561.09,354.57C567.50,350.98 568.23,351.16 567.58,356.25C565.04,376.16 563.66,384.48 561.87,390.50C559.99,396.85 559.08,398.20 552.15,405.03C537.91,419.05 524.35,425.02 505.50,425.58C499.45,425.75 492.85,425.55 490.84,425.12ZM424.06,411.45C412.51,406.07 405.20,398.65 386.69,373.50C382.64,368.00 376.08,359.93 372.10,355.58C368.12,351.22 364.21,346.38 363.41,344.82C360.97,340.10 363.72,336.98 376.50,329.95C382.75,326.51 387.18,322.86 396.76,313.23C408.19,301.73 409.07,301.06 409.85,303.20C410.32,304.47 411.93,316.52 413.44,330.00C414.95,343.48 417.06,359.16 418.15,364.85C421.68,383.48 428.55,398.63 437.84,408.29C440.86,411.43 441.23,412.24 439.99,413.03C437.19,414.80 429.66,414.05 424.06,411.45ZM460.32,412.01C456.38,410.97 451.69,409.38 449.92,408.46C445.13,405.98 437.15,398.21 433.37,392.33C426.57,381.77 424.95,374.34 417.48,319.50C413.97,293.74 414.87,296.02 408.14,295.92C402.55,295.84 402.52,295.83 405.50,294.46C417.84,288.81 466.21,299.73 498.45,315.44C510.04,321.09 522.58,329.24 524.42,332.31C525.65,334.36 524.64,335.39 511.77,345.29C501.83,352.94 489.05,365.67 483.50,373.45C475.14,385.17 471.03,397.10 471.01,409.75C471.00,414.75 470.87,414.77 460.32,412.01ZM562.58,402.25C567.76,390.16 569.58,381.51 570.50,364.50C570.85,357.90 571.62,351.27 572.19,349.76C572.93,347.81 575.77,345.56 581.99,342.01C586.80,339.25 591.09,337.00 591.52,337.00C591.95,337.00 592.03,341.61 591.70,347.25C590.70,364.21 585.86,379.35 577.32,392.24C572.66,399.27 565.48,406.00 562.63,406.00C561.10,406.00 561.09,405.72 562.58,402.25ZM521.50,320.97C516.00,317.68 505.09,311.73 497.26,307.74C489.43,303.76 483.17,300.05 483.34,299.50C483.51,298.95 487.89,296.37 493.08,293.77C510.74,284.91 537.52,277.62 557.26,276.29L566.02,275.70L564.59,279.74C563.81,281.96 562.87,287.99 562.50,293.14C561.60,305.91 560.73,308.26 555.71,311.55C553.39,313.06 549.48,315.98 547.00,318.02C540.39,323.49 534.94,327.00 533.11,326.98C532.22,326.97 527.00,324.26 521.50,320.97ZM462.00,294.86C445.32,289.04 437.33,287.77 414.50,287.31C402.00,287.06 392.59,286.44 391.25,285.77C386.61,283.48 389.61,276.34 396.60,273.06C409.51,266.99 429.59,270.47 463.18,284.61C470.22,287.58 476.34,290.00 476.80,290.00C477.25,290.00 478.45,290.61 479.47,291.35C481.21,292.62 481.08,292.87 477.43,295.35C475.29,296.81 472.85,297.96 472.02,297.91C471.18,297.87 466.68,296.49 462.00,294.86ZM576.65,288.01C576.29,282.53 575.36,276.13 574.59,273.77C570.90,262.55 571.34,261.04 578.35,261.02C586.30,260.98 592.99,266.73 593.00,273.59C593.01,282.04 587.65,292.18 581.29,295.73L577.30,297.96L576.65,288.01ZM471.00,281.37C463.57,278.33 453.23,274.70 448.00,273.31C442.77,271.92 438.35,270.65 438.18,270.49C437.22,269.60 441.37,264.02 444.68,261.73C454.53,254.93 463.37,253.28 478.53,255.40C484.08,256.17 485.21,255.98 492.53,252.97C506.60,247.20 521.70,247.74 534.96,254.49C541.79,257.97 544.20,260.99 543.82,265.63C543.39,270.79 541.22,271.06 535.24,266.69C529.16,262.25 522.41,260.00 515.22,260.01C503.03,260.04 489.02,266.24 485.40,273.20C483.75,276.38 483.57,282.33 485.04,285.07C485.60,286.13 485.72,286.98 485.29,286.95C484.85,286.92 478.43,284.41 471.00,281.37ZM492.25,282.39C491.01,280.84 490.00,278.52 490.00,277.24C490.00,271.53 500.73,266.54 513.00,266.54C523.85,266.53 535.55,270.68 533.60,273.84C532.67,275.35 505.19,284.13 499.63,284.69C494.91,285.17 494.32,284.98 492.25,282.39ZM553.00,261.03C549.42,257.36 544.36,253.33 541.75,252.09C531.42,247.16 540.26,246.76 551.18,251.66C557.82,254.64 559.30,256.10 560.99,261.35C562.00,264.51 561.98,265.43 560.86,266.45C559.75,267.48 558.32,266.49 553.00,261.03Z"/></svg>