solid OpenSCAD_Model
  facet normal 0 0 -1
    outer loop
      vertex -2 -11 45
      vertex 16 -9 45
      vertex 16 -11 45
    endloop
  endfacet
  facet normal 0 0 -1
    outer loop
      vertex -2 -11 45
      vertex 16 -1 45
      vertex 16 -9 45
    endloop
  endfacet
  facet normal 0 0 -1
    outer loop
      vertex -2 -11 45
      vertex 10 -1 45
      vertex 12 -1 45
    endloop
  endfacet
  facet normal 0 0 -1
    outer loop
      vertex -2 -11 45
      vertex 12 -1 45
      vertex 14 -1 45
    endloop
  endfacet
  facet normal 0 0 -1
    outer loop
      vertex -2 -11 45
      vertex 14 -1 45
      vertex 16 -1 45
    endloop
  endfacet
  facet normal 0 0 -1
    outer loop
      vertex 16 -9 45
      vertex 20 -1 45
      vertex 26 -9 45
    endloop
  endfacet
  facet normal 0 0 -1
    outer loop
      vertex 16 -9 45
      vertex 16 -1 45
      vertex 18 -1 45
    endloop
  endfacet
  facet normal 0 0 -1
    outer loop
      vertex 16 -9 45
      vertex 18 -1 45
      vertex 20 -1 45
    endloop
  endfacet
  facet normal 0 0 -1
    outer loop
      vertex 20 -1 45
      vertex 22 -1 45
      vertex 26 -9 45
    endloop
  endfacet
  facet normal 0 0 -1
    outer loop
      vertex 24 -1 45
      vertex 26 -9 45
      vertex 22 -1 45
    endloop
  endfacet
  facet normal 0 0 -1
    outer loop
      vertex 24 -1 45
      vertex 26 -1 45
      vertex 26 -9 45
    endloop
  endfacet
  facet normal 0 0 -1
    outer loop
      vertex 28 -1 45
      vertex 26 -9 45
      vertex 26 -1 45
    endloop
  endfacet
  facet normal 0 0 -1
    outer loop
      vertex 28 -1 45
      vertex 30 -1 45
      vertex 26 -9 45
    endloop
  endfacet
  facet normal 0 -1 0
    outer loop
      vertex -2 -11 45
      vertex 16 -11 45
      vertex 16 -11 47
    endloop
  endfacet
  facet normal 0 1 0
    outer loop
      vertex 12 -1 45
      vertex 10 -1 45
      vertex 10 -1 47
    endloop
  endfacet
  facet normal 1 0 0
    outer loop
      vertex 16 -11 47
      vertex 16 -11 45
      vertex 16 -9 45
    endloop
  endfacet
  facet normal 0 -1 0
    outer loop
      vertex 16 -9 45
      vertex 26 -9 45
      vertex 26 -9 47
    endloop
  endfacet
  facet normal -1 0 0
    outer loop
      vertex 26 -11 45
      vertex 26 -11 47
      vertex 26 -9 45
    endloop
  endfacet
  facet normal 0 1 0
    outer loop
      vertex 16 -1 45
      vertex 14 -1 45
      vertex 14 -1 47
    endloop
  endfacet
  facet normal 0 1 0
    outer loop
      vertex 20 -1 45
      vertex 18 -1 45
      vertex 18 -1 47
    endloop
  endfacet
  facet normal 0 1 0
    outer loop
      vertex 24 -1 45
      vertex 22 -1 45
      vertex 22 -1 47
    endloop
  endfacet
  facet normal 0 1 0
    outer loop
      vertex 28 -1 45
      vertex 26 -1 45
      vertex 26 -1 47
    endloop
  endfacet
  facet normal 0 0 -1
    outer loop
      vertex -2 -11 45
      vertex 10 54 45
      vertex 10 -1 45
    endloop
  endfacet
  facet normal 0 0 -1
    outer loop
      vertex 12 -1 45
      vertex 14 54 45
      vertex 14 -1 45
    endloop
  endfacet
  facet normal 0 0 -1
    outer loop
      vertex 16 54 45
      vertex 18 -1 45
      vertex 16 -1 45
    endloop
  endfacet
  facet normal 0 0 -1
    outer loop
      vertex 20 54 45
      vertex 22 -1 45
      vertex 20 -1 45
    endloop
  endfacet
  facet normal 0 0 -1
    outer loop
      vertex 24 54 45
      vertex 26 -1 45
      vertex 24 -1 45
    endloop
  endfacet
  facet normal 0 0 -1
    outer loop
      vertex 28 54 45
      vertex 30 -1 45
      vertex 28 -1 45
    endloop
  endfacet
  facet normal -1 0 0
    outer loop
      vertex 12 -1 45
      vertex 12 -1 47
      vertex 12 54 45
    endloop
  endfacet
  facet normal -1 0 0
    outer loop
      vertex 16 54 45
      vertex 16 -1 45
      vertex 16 -1 47
    endloop
  endfacet
  facet normal -1 0 0
    outer loop
      vertex 20 54 45
      vertex 20 -1 45
      vertex 20 -1 47
    endloop
  endfacet
  facet normal -1 0 0
    outer loop
      vertex 24 54 45
      vertex 24 -1 45
      vertex 24 -1 47
    endloop
  endfacet
  facet normal -1 0 0
    outer loop
      vertex 28 54 45
      vertex 28 -1 45
      vertex 28 -1 47
    endloop
  endfacet
  facet normal 0 0 -1
    outer loop
      vertex 26 -11 45
      vertex 26 -9 45
      vertex 36 -9 45
    endloop
  endfacet
  facet normal 0 0 -1
    outer loop
      vertex 36 -9 45
      vertex 26 -9 45
      vertex 30 -1 45
    endloop
  endfacet
  facet normal 0 0 -1
    outer loop
      vertex 26 -11 45
      vertex 36 -9 45
      vertex 36 -11 45
    endloop
  endfacet
  facet normal 0 0 -1
    outer loop
      vertex 36 -9 45
      vertex 30 -1 45
      vertex 32 -1 45
    endloop
  endfacet
  facet normal 0 0 -1
    outer loop
      vertex 36 -9 45
      vertex 32 -1 45
      vertex 34 -1 45
    endloop
  endfacet
  facet normal 0 0 -1
    outer loop
      vertex 36 -9 45
      vertex 34 -1 45
      vertex 36 -1 45
    endloop
  endfacet
  facet normal 0 0 -1
    outer loop
      vertex 36 -9 45
      vertex 40 -1 45
      vertex 46 -9 45
    endloop
  endfacet
  facet normal 0 0 -1
    outer loop
      vertex 36 -9 45
      vertex 36 -1 45
      vertex 38 -1 45
    endloop
  endfacet
  facet normal 0 0 -1
    outer loop
      vertex 36 -9 45
      vertex 38 -1 45
      vertex 40 -1 45
    endloop
  endfacet
  facet normal 0 0 -1
    outer loop
      vertex 40 -1 45
      vertex 42 -1 45
      vertex 46 -9 45
    endloop
  endfacet
  facet normal 0 0 -1
    outer loop
      vertex 44 -1 45
      vertex 46 -9 45
      vertex 42 -1 45
    endloop
  endfacet
  facet normal 0 0 -1
    outer loop
      vertex 46 -11 45
      vertex 46 -9 45
      vertex 56 -9 45
    endloop
  endfacet
  facet normal 0 0 -1
    outer loop
      vertex 56 -9 45
      vertex 46 -9 45
      vertex 50 -1 45
    endloop
  endfacet
  facet normal 0 0 -1
    outer loop
      vertex 44 -1 45
      vertex 46 -1 45
      vertex 46 -9 45
    endloop
  endfacet
  facet normal 0 0 -1
    outer loop
      vertex 48 -1 45
      vertex 46 -9 45
      vertex 46 -1 45
    endloop
  endfacet
  facet normal 0 0 -1
    outer loop
      vertex 48 -1 45
      vertex 50 -1 45
      vertex 46 -9 45
    endloop
  endfacet
  facet normal 0 0 -1
    outer loop
      vertex 46 -11 45
      vertex 56 -9 45
      vertex 56 -11 45
    endloop
  endfacet
  facet normal 0 0 -1
    outer loop
      vertex 52 -1 45
      vertex 56 -9 45
      vertex 50 -1 45
    endloop
  endfacet
  facet normal 0 0 -1
    outer loop
      vertex 52 -1 45
      vertex 54 -1 45
      vertex 56 -9 45
    endloop
  endfacet
  facet normal 0 0 -1
    outer loop
      vertex 56 -9 45
      vertex 54 -1 45
      vertex 56 -1 45
    endloop
  endfacet
  facet normal 0 0 -1
    outer loop
      vertex 56 -9 45
      vertex 56 -1 45
      vertex 58 -1 45
    endloop
  endfacet
  facet normal 0 0 -1
    outer loop
      vertex 56 -9 45
      vertex 58 -1 45
      vertex 60 -1 45
    endloop
  endfacet
  facet normal 0 -1 0
    outer loop
      vertex 26 -11 45
      vertex 36 -11 45
      vertex 36 -11 47
    endloop
  endfacet
  facet normal 1 0 0
    outer loop
      vertex 36 -11 47
      vertex 36 -11 45
      vertex 36 -9 45
    endloop
  endfacet
  facet normal 0 -1 0
    outer loop
      vertex 36 -9 45
      vertex 46 -9 45
      vertex 46 -9 47
    endloop
  endfacet
  facet normal 0 1 0
    outer loop
      vertex 32 -1 45
      vertex 30 -1 45
      vertex 30 -1 47
    endloop
  endfacet
  facet normal 0 1 0
    outer loop
      vertex 36 -1 45
      vertex 34 -1 45
      vertex 34 -1 47
    endloop
  endfacet
  facet normal 0 1 0
    outer loop
      vertex 40 -1 45
      vertex 38 -1 45
      vertex 38 -1 47
    endloop
  endfacet
  facet normal 0 1 0
    outer loop
      vertex 44 -1 45
      vertex 42 -1 45
      vertex 42 -1 47
    endloop
  endfacet
  facet normal -1 0 0
    outer loop
      vertex 46 -11 45
      vertex 46 -11 47
      vertex 46 -9 45
    endloop
  endfacet
  facet normal 0 -1 0
    outer loop
      vertex 46 -11 45
      vertex 56 -11 45
      vertex 56 -11 47
    endloop
  endfacet
  facet normal 1 0 0
    outer loop
      vertex 56 -11 47
      vertex 56 -11 45
      vertex 56 -9 45
    endloop
  endfacet
  facet normal 0 1 0
    outer loop
      vertex 48 -1 45
      vertex 46 -1 45
      vertex 46 -1 47
    endloop
  endfacet
  facet normal 0 1 0
    outer loop
      vertex 52 -1 45
      vertex 50 -1 45
      vertex 50 -1 47
    endloop
  endfacet
  facet normal 0 1 0
    outer loop
      vertex 56 -1 45
      vertex 54 -1 45
      vertex 54 -1 47
    endloop
  endfacet
  facet normal 0 1 0
    outer loop
      vertex 60 -1 45
      vertex 58 -1 45
      vertex 58 -1 47
    endloop
  endfacet
  facet normal 0 0 -1
    outer loop
      vertex 32 54 45
      vertex 34 -1 45
      vertex 32 -1 45
    endloop
  endfacet
  facet normal 0 0 -1
    outer loop
      vertex 36 54 45
      vertex 38 -1 45
      vertex 36 -1 45
    endloop
  endfacet
  facet normal 0 0 -1
    outer loop
      vertex 40 54 45
      vertex 42 -1 45
      vertex 40 -1 45
    endloop
  endfacet
  facet normal 0 0 -1
    outer loop
      vertex 44 54 45
      vertex 46 -1 45
      vertex 44 -1 45
    endloop
  endfacet
  facet normal 0 0 -1
    outer loop
      vertex 48 54 45
      vertex 50 -1 45
      vertex 48 -1 45
    endloop
  endfacet
  facet normal 0 0 -1
    outer loop
      vertex 52 54 45
      vertex 54 -1 45
      vertex 52 -1 45
    endloop
  endfacet
  facet normal 0 0 -1
    outer loop
      vertex 56 54 45
      vertex 58 -1 45
      vertex 56 -1 45
    endloop
  endfacet
  facet normal -1 0 0
    outer loop
      vertex 32 54 45
      vertex 32 -1 45
      vertex 32 -1 47
    endloop
  endfacet
  facet normal -1 0 0
    outer loop
      vertex 36 54 45
      vertex 36 -1 45
      vertex 36 -1 47
    endloop
  endfacet
  facet normal -1 0 0
    outer loop
      vertex 40 54 45
      vertex 40 -1 45
      vertex 40 -1 47
    endloop
  endfacet
  facet normal -1 0 0
    outer loop
      vertex 44 54 45
      vertex 44 -1 45
      vertex 44 -1 47
    endloop
  endfacet
  facet normal -1 0 0
    outer loop
      vertex 48 54 45
      vertex 48 -1 45
      vertex 48 -1 47
    endloop
  endfacet
  facet normal -1 0 0
    outer loop
      vertex 52 54 45
      vertex 52 -1 45
      vertex 52 -1 47
    endloop
  endfacet
  facet normal -1 0 0
    outer loop
      vertex 56 54 45
      vertex 56 -1 45
      vertex 56 -1 47
    endloop
  endfacet
  facet normal 0 -1 0
    outer loop
      vertex -2 -11 45
      vertex 16 -11 47
      vertex -2 -11 47
    endloop
  endfacet
  facet normal 0 1 0
    outer loop
      vertex 12 -1 47
      vertex 12 -1 45
      vertex 10 -1 47
    endloop
  endfacet
  facet normal 1 0 0
    outer loop
      vertex 16 -11 47
      vertex 16 -9 45
      vertex 16 -9 47
    endloop
  endfacet
  facet normal 0 -1 0
    outer loop
      vertex 16 -9 47
      vertex 16 -9 45
      vertex 26 -9 47
    endloop
  endfacet
  facet normal -1 0 0
    outer loop
      vertex 26 -11 47
      vertex 26 -9 47
      vertex 26 -9 45
    endloop
  endfacet
  facet normal 0 1 0
    outer loop
      vertex 16 -1 47
      vertex 16 -1 45
      vertex 14 -1 47
    endloop
  endfacet
  facet normal 0 1 0
    outer loop
      vertex 20 -1 47
      vertex 20 -1 45
      vertex 18 -1 47
    endloop
  endfacet
  facet normal 0 1 0
    outer loop
      vertex 24 -1 47
      vertex 24 -1 45
      vertex 22 -1 47
    endloop
  endfacet
  facet normal 0 1 0
    outer loop
      vertex 28 -1 47
      vertex 28 -1 45
      vertex 26 -1 47
    endloop
  endfacet
  facet normal 0 0 1
    outer loop
      vertex -2 -11 47
      vertex 16 -9 47
      vertex 12 -1 47
    endloop
  endfacet
  facet normal 0 0 1
    outer loop
      vertex -2 -11 47
      vertex 16 -11 47
      vertex 16 -9 47
    endloop
  endfacet
  facet normal 0 0 1
    outer loop
      vertex -2 -11 47
      vertex 12 -1 47
      vertex 10 -1 47
    endloop
  endfacet
  facet normal 0 0 1
    outer loop
      vertex 16 -9 47
      vertex 26 -9 47
      vertex 20 -1 47
    endloop
  endfacet
  facet normal 0 0 1
    outer loop
      vertex 16 -9 47
      vertex 14 -1 47
      vertex 12 -1 47
    endloop
  endfacet
  facet normal 0 0 1
    outer loop
      vertex 16 -9 47
      vertex 16 -1 47
      vertex 14 -1 47
    endloop
  endfacet
  facet normal 0 0 1
    outer loop
      vertex 16 -9 47
      vertex 18 -1 47
      vertex 16 -1 47
    endloop
  endfacet
  facet normal 0 0 1
    outer loop
      vertex 16 -9 47
      vertex 20 -1 47
      vertex 18 -1 47
    endloop
  endfacet
  facet normal 0 0 1
    outer loop
      vertex 20 -1 47
      vertex 26 -9 47
      vertex 22 -1 47
    endloop
  endfacet
  facet normal 0 0 1
    outer loop
      vertex 24 -1 47
      vertex 22 -1 47
      vertex 26 -9 47
    endloop
  endfacet
  facet normal 0 0 1
    outer loop
      vertex 24 -1 47
      vertex 26 -9 47
      vertex 26 -1 47
    endloop
  endfacet
  facet normal 0 0 1
    outer loop
      vertex 28 -1 47
      vertex 26 -1 47
      vertex 26 -9 47
    endloop
  endfacet
  facet normal 0 0 1
    outer loop
      vertex 28 -1 47
      vertex 26 -9 47
      vertex 30 -1 47
    endloop
  endfacet
  facet normal -1 0 0
    outer loop
      vertex -2 -11 45
      vertex -2 -11 47
      vertex -2 64 47
    endloop
  endfacet
  facet normal 1 0 0
    outer loop
      vertex 10 54 47
      vertex 10 -1 47
      vertex 10 -1 45
    endloop
  endfacet
  facet normal 1 0 0
    outer loop
      vertex 14 54 47
      vertex 14 -1 47
      vertex 14 -1 45
    endloop
  endfacet
  facet normal 1 0 0
    outer loop
      vertex 18 54 47
      vertex 18 -1 47
      vertex 18 -1 45
    endloop
  endfacet
  facet normal 1 0 0
    outer loop
      vertex 22 54 47
      vertex 22 -1 47
      vertex 22 -1 45
    endloop
  endfacet
  facet normal 1 0 0
    outer loop
      vertex 26 54 47
      vertex 26 -1 47
      vertex 26 -1 45
    endloop
  endfacet
  facet normal 0 0 1
    outer loop
      vertex -2 -11 47
      vertex 10 -1 47
      vertex -2 64 47
    endloop
  endfacet
  facet normal 0 0 1
    outer loop
      vertex 12 -1 47
      vertex 14 -1 47
      vertex 14 54 47
    endloop
  endfacet
  facet normal 0 0 1
    outer loop
      vertex 16 -1 47
      vertex 18 -1 47
      vertex 18 54 47
    endloop
  endfacet
  facet normal 0 0 1
    outer loop
      vertex 20 -1 47
      vertex 22 -1 47
      vertex 22 54 47
    endloop
  endfacet
  facet normal 0 0 1
    outer loop
      vertex 24 -1 47
      vertex 26 -1 47
      vertex 26 54 47
    endloop
  endfacet
  facet normal 0 -1 0
    outer loop
      vertex 26 -11 45
      vertex 36 -11 47
      vertex 26 -11 47
    endloop
  endfacet
  facet normal 1 0 0
    outer loop
      vertex 36 -11 47
      vertex 36 -9 45
      vertex 36 -9 47
    endloop
  endfacet
  facet normal 0 -1 0
    outer loop
      vertex 36 -9 47
      vertex 36 -9 45
      vertex 46 -9 47
    endloop
  endfacet
  facet normal 0 1 0
    outer loop
      vertex 32 -1 47
      vertex 32 -1 45
      vertex 30 -1 47
    endloop
  endfacet
  facet normal 0 1 0
    outer loop
      vertex 36 -1 47
      vertex 36 -1 45
      vertex 34 -1 47
    endloop
  endfacet
  facet normal 0 1 0
    outer loop
      vertex 40 -1 47
      vertex 40 -1 45
      vertex 38 -1 47
    endloop
  endfacet
  facet normal 0 1 0
    outer loop
      vertex 44 -1 47
      vertex 44 -1 45
      vertex 42 -1 47
    endloop
  endfacet
  facet normal -1 0 0
    outer loop
      vertex 46 -11 47
      vertex 46 -9 47
      vertex 46 -9 45
    endloop
  endfacet
  facet normal 0 -1 0
    outer loop
      vertex 46 -11 45
      vertex 56 -11 47
      vertex 46 -11 47
    endloop
  endfacet
  facet normal 1 0 0
    outer loop
      vertex 56 -11 47
      vertex 56 -9 45
      vertex 56 -9 47
    endloop
  endfacet
  facet normal 0 -1 0
    outer loop
      vertex 56 -9 47
      vertex 56 -9 45
      vertex 66 -9 47
    endloop
  endfacet
  facet normal 0 1 0
    outer loop
      vertex 48 -1 47
      vertex 48 -1 45
      vertex 46 -1 47
    endloop
  endfacet
  facet normal 0 1 0
    outer loop
      vertex 52 -1 47
      vertex 52 -1 45
      vertex 50 -1 47
    endloop
  endfacet
  facet normal 0 1 0
    outer loop
      vertex 56 -1 47
      vertex 56 -1 45
      vertex 54 -1 47
    endloop
  endfacet
  facet normal 0 1 0
    outer loop
      vertex 60 -1 47
      vertex 60 -1 45
      vertex 58 -1 47
    endloop
  endfacet
  facet normal 0 0 1
    outer loop
      vertex 26 -11 47
      vertex 36 -11 47
      vertex 26 -9 47
    endloop
  endfacet
  facet normal 0 0 1
    outer loop
      vertex 36 -9 47
      vertex 32 -1 47
      vertex 26 -9 47
    endloop
  endfacet
  facet normal 0 0 1
    outer loop
      vertex 36 -11 47
      vertex 36 -9 47
      vertex 26 -9 47
    endloop
  endfacet
  facet normal 0 0 1
    outer loop
      vertex 32 -1 47
      vertex 30 -1 47
      vertex 26 -9 47
    endloop
  endfacet
  facet normal 0 0 1
    outer loop
      vertex 36 -9 47
      vertex 34 -1 47
      vertex 32 -1 47
    endloop
  endfacet
  facet normal 0 0 1
    outer loop
      vertex 36 -9 47
      vertex 36 -1 47
      vertex 34 -1 47
    endloop
  endfacet
  facet normal 0 0 1
    outer loop
      vertex 36 -9 47
      vertex 46 -9 47
      vertex 40 -1 47
    endloop
  endfacet
  facet normal 0 0 1
    outer loop
      vertex 36 -9 47
      vertex 38 -1 47
      vertex 36 -1 47
    endloop
  endfacet
  facet normal 0 0 1
    outer loop
      vertex 36 -9 47
      vertex 40 -1 47
      vertex 38 -1 47
    endloop
  endfacet
  facet normal 0 0 1
    outer loop
      vertex 40 -1 47
      vertex 46 -9 47
      vertex 42 -1 47
    endloop
  endfacet
  facet normal 0 0 1
    outer loop
      vertex 44 -1 47
      vertex 42 -1 47
      vertex 46 -9 47
    endloop
  endfacet
  facet normal 0 0 1
    outer loop
      vertex 46 -11 47
      vertex 56 -11 47
      vertex 46 -9 47
    endloop
  endfacet
  facet normal 0 0 1
    outer loop
      vertex 52 -1 47
      vertex 46 -9 47
      vertex 56 -9 47
    endloop
  endfacet
  facet normal 0 0 1
    outer loop
      vertex 44 -1 47
      vertex 46 -9 47
      vertex 46 -1 47
    endloop
  endfacet
  facet normal 0 0 1
    outer loop
      vertex 48 -1 47
      vertex 46 -1 47
      vertex 46 -9 47
    endloop
  endfacet
  facet normal 0 0 1
    outer loop
      vertex 48 -1 47
      vertex 46 -9 47
      vertex 50 -1 47
    endloop
  endfacet
  facet normal 0 0 1
    outer loop
      vertex 52 -1 47
      vertex 50 -1 47
      vertex 46 -9 47
    endloop
  endfacet
  facet normal 0 0 1
    outer loop
      vertex 56 -11 47
      vertex 56 -9 47
      vertex 46 -9 47
    endloop
  endfacet
  facet normal 0 0 1
    outer loop
      vertex 52 -1 47
      vertex 56 -9 47
      vertex 54 -1 47
    endloop
  endfacet
  facet normal 0 0 1
    outer loop
      vertex 56 -9 47
      vertex 56 -1 47
      vertex 54 -1 47
    endloop
  endfacet
  facet normal 0 0 1
    outer loop
      vertex 56 -9 47
      vertex 58 -1 47
      vertex 56 -1 47
    endloop
  endfacet
  facet normal 0 0 1
    outer loop
      vertex 56 -9 47
      vertex 60 -1 47
      vertex 58 -1 47
    endloop
  endfacet
  facet normal 1 0 0
    outer loop
      vertex 30 54 47
      vertex 30 -1 47
      vertex 30 -1 45
    endloop
  endfacet
  facet normal 1 0 0
    outer loop
      vertex 34 54 47
      vertex 34 -1 47
      vertex 34 -1 45
    endloop
  endfacet
  facet normal 1 0 0
    outer loop
      vertex 38 54 47
      vertex 38 -1 47
      vertex 38 -1 45
    endloop
  endfacet
  facet normal 1 0 0
    outer loop
      vertex 42 54 47
      vertex 42 -1 47
      vertex 42 -1 45
    endloop
  endfacet
  facet normal 1 0 0
    outer loop
      vertex 46 54 47
      vertex 46 -1 47
      vertex 46 -1 45
    endloop
  endfacet
  facet normal 1 0 0
    outer loop
      vertex 50 54 47
      vertex 50 -1 47
      vertex 50 -1 45
    endloop
  endfacet
  facet normal 1 0 0
    outer loop
      vertex 54 54 47
      vertex 54 -1 47
      vertex 54 -1 45
    endloop
  endfacet
  facet normal 1 0 0
    outer loop
      vertex 58 54 47
      vertex 58 -1 47
      vertex 58 -1 45
    endloop
  endfacet
  facet normal 0 0 1
    outer loop
      vertex 28 -1 47
      vertex 30 -1 47
      vertex 30 54 47
    endloop
  endfacet
  facet normal 0 0 1
    outer loop
      vertex 32 -1 47
      vertex 34 -1 47
      vertex 34 54 47
    endloop
  endfacet
  facet normal 0 0 1
    outer loop
      vertex 36 -1 47
      vertex 38 -1 47
      vertex 38 54 47
    endloop
  endfacet
  facet normal 0 0 1
    outer loop
      vertex 40 -1 47
      vertex 42 -1 47
      vertex 42 54 47
    endloop
  endfacet
  facet normal 0 0 1
    outer loop
      vertex 44 -1 47
      vertex 46 -1 47
      vertex 46 54 47
    endloop
  endfacet
  facet normal 0 0 1
    outer loop
      vertex 48 -1 47
      vertex 50 -1 47
      vertex 50 54 47
    endloop
  endfacet
  facet normal 0 0 1
    outer loop
      vertex 52 -1 47
      vertex 54 -1 47
      vertex 54 54 47
    endloop
  endfacet
  facet normal 0 0 1
    outer loop
      vertex 56 -1 47
      vertex 58 -1 47
      vertex 58 54 47
    endloop
  endfacet
  facet normal 0 0 -1
    outer loop
      vertex -2 -11 45
      vertex -2 64 45
      vertex 10 54 45
    endloop
  endfacet
  facet normal 0 0 -1
    outer loop
      vertex 12 -1 45
      vertex 12 54 45
      vertex 14 54 45
    endloop
  endfacet
  facet normal 0 0 -1
    outer loop
      vertex 18 -1 45
      vertex 16 54 45
      vertex 18 54 45
    endloop
  endfacet
  facet normal 0 0 -1
    outer loop
      vertex 22 -1 45
      vertex 20 54 45
      vertex 22 54 45
    endloop
  endfacet
  facet normal 0 0 -1
    outer loop
      vertex 26 -1 45
      vertex 24 54 45
      vertex 26 54 45
    endloop
  endfacet
  facet normal 1 0 0
    outer loop
      vertex 10 54 47
      vertex 10 -1 45
      vertex 10 54 45
    endloop
  endfacet
  facet normal -1 0 0
    outer loop
      vertex -2 -11 45
      vertex -2 64 47
      vertex -2 64 45
    endloop
  endfacet
  facet normal 1 0 0
    outer loop
      vertex 14 54 47
      vertex 14 -1 45
      vertex 14 54 45
    endloop
  endfacet
  facet normal 1 0 0
    outer loop
      vertex 18 -1 45
      vertex 18 54 45
      vertex 18 54 47
    endloop
  endfacet
  facet normal 1 0 0
    outer loop
      vertex 22 -1 45
      vertex 22 54 45
      vertex 22 54 47
    endloop
  endfacet
  facet normal 1 0 0
    outer loop
      vertex 26 -1 45
      vertex 26 54 45
      vertex 26 54 47
    endloop
  endfacet
  facet normal 0 0 -1
    outer loop
      vertex 10 54 45
      vertex 16 62 45
      vertex 12 54 45
    endloop
  endfacet
  facet normal 0 0 -1
    outer loop
      vertex -2 64 45
      vertex 16 62 45
      vertex 10 54 45
    endloop
  endfacet
  facet normal 0 0 -1
    outer loop
      vertex -2 64 45
      vertex 16 64 45
      vertex 16 62 45
    endloop
  endfacet
  facet normal 0 0 -1
    outer loop
      vertex 14 54 45
      vertex 12 54 45
      vertex 16 62 45
    endloop
  endfacet
  facet normal 0 0 -1
    outer loop
      vertex 14 54 45
      vertex 16 62 45
      vertex 16 54 45
    endloop
  endfacet
  facet normal 0 0 -1
    outer loop
      vertex 18 54 45
      vertex 16 54 45
      vertex 16 62 45
    endloop
  endfacet
  facet normal 0 0 -1
    outer loop
      vertex 18 54 45
      vertex 16 62 45
      vertex 20 54 45
    endloop
  endfacet
  facet normal 0 0 -1
    outer loop
      vertex 22 54 45
      vertex 20 54 45
      vertex 16 62 45
    endloop
  endfacet
  facet normal 0 0 -1
    outer loop
      vertex 22 54 45
      vertex 26 62 45
      vertex 24 54 45
    endloop
  endfacet
  facet normal 0 0 -1
    outer loop
      vertex 26 62 45
      vertex 26 54 45
      vertex 24 54 45
    endloop
  endfacet
  facet normal 0 0 -1
    outer loop
      vertex 26 62 45
      vertex 28 54 45
      vertex 26 54 45
    endloop
  endfacet
  facet normal 0 0 -1
    outer loop
      vertex 26 62 45
      vertex 30 54 45
      vertex 28 54 45
    endloop
  endfacet
  facet normal 0 0 -1
    outer loop
      vertex 22 54 45
      vertex 16 62 45
      vertex 26 62 45
    endloop
  endfacet
  facet normal 0 -1 0
    outer loop
      vertex 10 54 45
      vertex 12 54 45
      vertex 12 54 47
    endloop
  endfacet
  facet normal 0 1 0
    outer loop
      vertex -2 64 45
      vertex -2 64 47
      vertex 16 64 45
    endloop
  endfacet
  facet normal 0 -1 0
    outer loop
      vertex 16 54 47
      vertex 14 54 45
      vertex 16 54 45
    endloop
  endfacet
  facet normal 0 -1 0
    outer loop
      vertex 18 54 45
      vertex 20 54 45
      vertex 20 54 47
    endloop
  endfacet
  facet normal 0 -1 0
    outer loop
      vertex 22 54 45
      vertex 24 54 45
      vertex 24 54 47
    endloop
  endfacet
  facet normal 0 -1 0
    outer loop
      vertex 26 54 45
      vertex 28 54 45
      vertex 28 54 47
    endloop
  endfacet
  facet normal 1 0 0
    outer loop
      vertex 16 64 45
      vertex 16 64 47
      vertex 16 62 45
    endloop
  endfacet
  facet normal 0 1 0
    outer loop
      vertex 26 62 45
      vertex 16 62 45
      vertex 16 62 47
    endloop
  endfacet
  facet normal -1 0 0
    outer loop
      vertex 26 64 45
      vertex 26 62 45
      vertex 26 64 47
    endloop
  endfacet
  facet normal 0 0 -1
    outer loop
      vertex 30 -1 45
      vertex 28 54 45
      vertex 30 54 45
    endloop
  endfacet
  facet normal 0 0 -1
    outer loop
      vertex 34 -1 45
      vertex 32 54 45
      vertex 34 54 45
    endloop
  endfacet
  facet normal 0 0 -1
    outer loop
      vertex 38 -1 45
      vertex 36 54 45
      vertex 38 54 45
    endloop
  endfacet
  facet normal 0 0 -1
    outer loop
      vertex 42 -1 45
      vertex 40 54 45
      vertex 42 54 45
    endloop
  endfacet
  facet normal 0 0 -1
    outer loop
      vertex 46 -1 45
      vertex 44 54 45
      vertex 46 54 45
    endloop
  endfacet
  facet normal 0 0 -1
    outer loop
      vertex 50 -1 45
      vertex 48 54 45
      vertex 50 54 45
    endloop
  endfacet
  facet normal 0 0 -1
    outer loop
      vertex 54 -1 45
      vertex 52 54 45
      vertex 54 54 45
    endloop
  endfacet
  facet normal 0 0 -1
    outer loop
      vertex 58 -1 45
      vertex 56 54 45
      vertex 58 54 45
    endloop
  endfacet
  facet normal 1 0 0
    outer loop
      vertex 30 -1 45
      vertex 30 54 45
      vertex 30 54 47
    endloop
  endfacet
  facet normal 1 0 0
    outer loop
      vertex 34 -1 45
      vertex 34 54 45
      vertex 34 54 47
    endloop
  endfacet
  facet normal 1 0 0
    outer loop
      vertex 38 -1 45
      vertex 38 54 45
      vertex 38 54 47
    endloop
  endfacet
  facet normal 1 0 0
    outer loop
      vertex 42 -1 45
      vertex 42 54 45
      vertex 42 54 47
    endloop
  endfacet
  facet normal 1 0 0
    outer loop
      vertex 46 -1 45
      vertex 46 54 45
      vertex 46 54 47
    endloop
  endfacet
  facet normal 1 0 0
    outer loop
      vertex 50 -1 45
      vertex 50 54 45
      vertex 50 54 47
    endloop
  endfacet
  facet normal 1 0 0
    outer loop
      vertex 54 -1 45
      vertex 54 54 45
      vertex 54 54 47
    endloop
  endfacet
  facet normal 1 0 0
    outer loop
      vertex 58 -1 45
      vertex 58 54 45
      vertex 58 54 47
    endloop
  endfacet
  facet normal 0 0 -1
    outer loop
      vertex 26 62 45
      vertex 32 54 45
      vertex 30 54 45
    endloop
  endfacet
  facet normal 0 0 -1
    outer loop
      vertex 34 54 45
      vertex 32 54 45
      vertex 36 62 45
    endloop
  endfacet
  facet normal 0 0 -1
    outer loop
      vertex 34 54 45
      vertex 36 62 45
      vertex 36 54 45
    endloop
  endfacet
  facet normal 0 0 -1
    outer loop
      vertex 26 62 45
      vertex 36 62 45
      vertex 32 54 45
    endloop
  endfacet
  facet normal 0 0 -1
    outer loop
      vertex 26 64 45
      vertex 36 64 45
      vertex 26 62 45
    endloop
  endfacet
  facet normal 0 0 -1
    outer loop
      vertex 36 64 45
      vertex 36 62 45
      vertex 26 62 45
    endloop
  endfacet
  facet normal 0 0 -1
    outer loop
      vertex 38 54 45
      vertex 36 54 45
      vertex 36 62 45
    endloop
  endfacet
  facet normal 0 0 -1
    outer loop
      vertex 38 54 45
      vertex 36 62 45
      vertex 40 54 45
    endloop
  endfacet
  facet normal 0 0 -1
    outer loop
      vertex 42 54 45
      vertex 40 54 45
      vertex 36 62 45
    endloop
  endfacet
  facet normal 0 0 -1
    outer loop
      vertex 42 54 45
      vertex 46 62 45
      vertex 44 54 45
    endloop
  endfacet
  facet normal 0 0 -1
    outer loop
      vertex 42 54 45
      vertex 36 62 45
      vertex 46 62 45
    endloop
  endfacet
  facet normal 0 0 -1
    outer loop
      vertex 46 54 45
      vertex 44 54 45
      vertex 46 62 45
    endloop
  endfacet
  facet normal 0 0 -1
    outer loop
      vertex 46 54 45
      vertex 46 62 45
      vertex 48 54 45
    endloop
  endfacet
  facet normal 0 0 -1
    outer loop
      vertex 50 54 45
      vertex 48 54 45
      vertex 46 62 45
    endloop
  endfacet
  facet normal 0 0 -1
    outer loop
      vertex 50 54 45
      vertex 46 62 45
      vertex 52 54 45
    endloop
  endfacet
  facet normal 0 0 -1
    outer loop
      vertex 46 62 45
      vertex 56 62 45
      vertex 52 54 45
    endloop
  endfacet
  facet normal 0 0 -1
    outer loop
      vertex 46 64 45
      vertex 56 64 45
      vertex 46 62 45
    endloop
  endfacet
  facet normal 0 0 -1
    outer loop
      vertex 54 54 45
      vertex 52 54 45
      vertex 56 62 45
    endloop
  endfacet
  facet normal 0 0 -1
    outer loop
      vertex 54 54 45
      vertex 56 62 45
      vertex 56 54 45
    endloop
  endfacet
  facet normal 0 0 -1
    outer loop
      vertex 58 54 45
      vertex 56 54 45
      vertex 56 62 45
    endloop
  endfacet
  facet normal 0 0 -1
    outer loop
      vertex 58 54 45
      vertex 56 62 45
      vertex 60 54 45
    endloop
  endfacet
  facet normal 0 0 -1
    outer loop
      vertex 62 54 45
      vertex 60 54 45
      vertex 56 62 45
    endloop
  endfacet
  facet normal 0 0 -1
    outer loop
      vertex 56 64 45
      vertex 56 62 45
      vertex 46 62 45
    endloop
  endfacet
  facet normal 0 -1 0
    outer loop
      vertex 30 54 45
      vertex 32 54 45
      vertex 32 54 47
    endloop
  endfacet
  facet normal 0 -1 0
    outer loop
      vertex 34 54 45
      vertex 36 54 45
      vertex 36 54 47
    endloop
  endfacet
  facet normal 0 -1 0
    outer loop
      vertex 38 54 45
      vertex 40 54 45
      vertex 40 54 47
    endloop
  endfacet
  facet normal 0 -1 0
    outer loop
      vertex 42 54 45
      vertex 44 54 45
      vertex 44 54 47
    endloop
  endfacet
  facet normal 0 1 0
    outer loop
      vertex 26 64 45
      vertex 26 64 47
      vertex 36 64 45
    endloop
  endfacet
  facet normal 1 0 0
    outer loop
      vertex 36 64 45
      vertex 36 64 47
      vertex 36 62 45
    endloop
  endfacet
  facet normal 0 1 0
    outer loop
      vertex 46 62 45
      vertex 36 62 45
      vertex 36 62 47
    endloop
  endfacet
  facet normal 0 -1 0
    outer loop
      vertex 46 54 45
      vertex 48 54 45
      vertex 48 54 47
    endloop
  endfacet
  facet normal 0 -1 0
    outer loop
      vertex 50 54 45
      vertex 52 54 45
      vertex 52 54 47
    endloop
  endfacet
  facet normal 0 -1 0
    outer loop
      vertex 54 54 45
      vertex 56 54 45
      vertex 56 54 47
    endloop
  endfacet
  facet normal 0 -1 0
    outer loop
      vertex 58 54 45
      vertex 60 54 45
      vertex 60 54 47
    endloop
  endfacet
  facet normal -1 0 0
    outer loop
      vertex 46 64 45
      vertex 46 62 45
      vertex 46 64 47
    endloop
  endfacet
  facet normal 0 1 0
    outer loop
      vertex 46 64 45
      vertex 46 64 47
      vertex 56 64 45
    endloop
  endfacet
  facet normal 1 0 0
    outer loop
      vertex 56 64 45
      vertex 56 64 47
      vertex 56 62 45
    endloop
  endfacet
  facet normal 0 1 0
    outer loop
      vertex 66 62 45
      vertex 56 62 45
      vertex 56 62 47
    endloop
  endfacet
  facet normal -1 0 0
    outer loop
      vertex 12 -1 47
      vertex 12 54 47
      vertex 12 54 45
    endloop
  endfacet
  facet normal -1 0 0
    outer loop
      vertex 16 -1 47
      vertex 16 54 47
      vertex 16 54 45
    endloop
  endfacet
  facet normal -1 0 0
    outer loop
      vertex 20 -1 47
      vertex 20 54 47
      vertex 20 54 45
    endloop
  endfacet
  facet normal -1 0 0
    outer loop
      vertex 24 -1 47
      vertex 24 54 47
      vertex 24 54 45
    endloop
  endfacet
  facet normal -1 0 0
    outer loop
      vertex 28 -1 47
      vertex 28 54 47
      vertex 28 54 45
    endloop
  endfacet
  facet normal 0 0 1
    outer loop
      vertex 12 -1 47
      vertex 14 54 47
      vertex 12 54 47
    endloop
  endfacet
  facet normal 0 0 1
    outer loop
      vertex -2 64 47
      vertex 10 -1 47
      vertex 10 54 47
    endloop
  endfacet
  facet normal 0 0 1
    outer loop
      vertex 16 -1 47
      vertex 18 54 47
      vertex 16 54 47
    endloop
  endfacet
  facet normal 0 0 1
    outer loop
      vertex 20 -1 47
      vertex 22 54 47
      vertex 20 54 47
    endloop
  endfacet
  facet normal 0 0 1
    outer loop
      vertex 24 -1 47
      vertex 26 54 47
      vertex 24 54 47
    endloop
  endfacet
  facet normal 0 0 1
    outer loop
      vertex 28 -1 47
      vertex 30 54 47
      vertex 28 54 47
    endloop
  endfacet
  facet normal 0 -1 0
    outer loop
      vertex 10 54 47
      vertex 10 54 45
      vertex 12 54 47
    endloop
  endfacet
  facet normal 0 1 0
    outer loop
      vertex -2 64 47
      vertex 16 64 47
      vertex 16 64 45
    endloop
  endfacet
  facet normal 0 -1 0
    outer loop
      vertex 16 54 47
      vertex 14 54 47
      vertex 14 54 45
    endloop
  endfacet
  facet normal 0 -1 0
    outer loop
      vertex 18 54 45
      vertex 20 54 47
      vertex 18 54 47
    endloop
  endfacet
  facet normal 0 -1 0
    outer loop
      vertex 22 54 45
      vertex 24 54 47
      vertex 22 54 47
    endloop
  endfacet
  facet normal 0 -1 0
    outer loop
      vertex 26 54 45
      vertex 28 54 47
      vertex 26 54 47
    endloop
  endfacet
  facet normal 1 0 0
    outer loop
      vertex 16 62 45
      vertex 16 64 47
      vertex 16 62 47
    endloop
  endfacet
  facet normal 0 1 0
    outer loop
      vertex 26 62 45
      vertex 16 62 47
      vertex 26 62 47
    endloop
  endfacet
  facet normal -1 0 0
    outer loop
      vertex 26 64 47
      vertex 26 62 45
      vertex 26 62 47
    endloop
  endfacet
  facet normal 0 0 1
    outer loop
      vertex -2 64 47
      vertex 10 54 47
      vertex 12 54 47
    endloop
  endfacet
  facet normal 0 0 1
    outer loop
      vertex -2 64 47
      vertex 12 54 47
      vertex 14 54 47
    endloop
  endfacet
  facet normal 0 0 1
    outer loop
      vertex -2 64 47
      vertex 14 54 47
      vertex 16 54 47
    endloop
  endfacet
  facet normal 0 0 1
    outer loop
      vertex -2 64 47
      vertex 16 54 47
      vertex 16 62 47
    endloop
  endfacet
  facet normal 0 0 1
    outer loop
      vertex -2 64 47
      vertex 16 62 47
      vertex 16 64 47
    endloop
  endfacet
  facet normal 0 0 1
    outer loop
      vertex 16 54 47
      vertex 18 54 47
      vertex 16 62 47
    endloop
  endfacet
  facet normal 0 0 1
    outer loop
      vertex 18 54 47
      vertex 20 54 47
      vertex 16 62 47
    endloop
  endfacet
  facet normal 0 0 1
    outer loop
      vertex 20 54 47
      vertex 22 54 47
      vertex 16 62 47
    endloop
  endfacet
  facet normal 0 0 1
    outer loop
      vertex 22 54 47
      vertex 24 54 47
      vertex 26 62 47
    endloop
  endfacet
  facet normal 0 0 1
    outer loop
      vertex 24 54 47
      vertex 26 54 47
      vertex 26 62 47
    endloop
  endfacet
  facet normal 0 0 1
    outer loop
      vertex 26 62 47
      vertex 26 54 47
      vertex 28 54 47
    endloop
  endfacet
  facet normal 0 0 1
    outer loop
      vertex 28 54 47
      vertex 30 54 47
      vertex 26 62 47
    endloop
  endfacet
  facet normal 0 0 1
    outer loop
      vertex 22 54 47
      vertex 26 62 47
      vertex 16 62 47
    endloop
  endfacet
  facet normal -1 0 0
    outer loop
      vertex 32 -1 47
      vertex 32 54 47
      vertex 32 54 45
    endloop
  endfacet
  facet normal -1 0 0
    outer loop
      vertex 36 54 45
      vertex 36 -1 47
      vertex 36 54 47
    endloop
  endfacet
  facet normal -1 0 0
    outer loop
      vertex 40 54 45
      vertex 40 -1 47
      vertex 40 54 47
    endloop
  endfacet
  facet normal -1 0 0
    outer loop
      vertex 44 54 45
      vertex 44 -1 47
      vertex 44 54 47
    endloop
  endfacet
  facet normal -1 0 0
    outer loop
      vertex 48 54 45
      vertex 48 -1 47
      vertex 48 54 47
    endloop
  endfacet
  facet normal -1 0 0
    outer loop
      vertex 52 54 45
      vertex 52 -1 47
      vertex 52 54 47
    endloop
  endfacet
  facet normal -1 0 0
    outer loop
      vertex 56 54 45
      vertex 56 -1 47
      vertex 56 54 47
    endloop
  endfacet
  facet normal 0 0 1
    outer loop
      vertex 32 -1 47
      vertex 34 54 47
      vertex 32 54 47
    endloop
  endfacet
  facet normal 0 0 1
    outer loop
      vertex 36 -1 47
      vertex 38 54 47
      vertex 36 54 47
    endloop
  endfacet
  facet normal 0 0 1
    outer loop
      vertex 40 -1 47
      vertex 42 54 47
      vertex 40 54 47
    endloop
  endfacet
  facet normal 0 0 1
    outer loop
      vertex 44 -1 47
      vertex 46 54 47
      vertex 44 54 47
    endloop
  endfacet
  facet normal 0 0 1
    outer loop
      vertex 48 -1 47
      vertex 50 54 47
      vertex 48 54 47
    endloop
  endfacet
  facet normal 0 0 1
    outer loop
      vertex 52 -1 47
      vertex 54 54 47
      vertex 52 54 47
    endloop
  endfacet
  facet normal 0 0 1
    outer loop
      vertex 56 -1 47
      vertex 58 54 47
      vertex 56 54 47
    endloop
  endfacet
  facet normal 0 -1 0
    outer loop
      vertex 30 54 45
      vertex 32 54 47
      vertex 30 54 47
    endloop
  endfacet
  facet normal 0 -1 0
    outer loop
      vertex 34 54 45
      vertex 36 54 47
      vertex 34 54 47
    endloop
  endfacet
  facet normal 0 -1 0
    outer loop
      vertex 38 54 45
      vertex 40 54 47
      vertex 38 54 47
    endloop
  endfacet
  facet normal 0 -1 0
    outer loop
      vertex 42 54 45
      vertex 44 54 47
      vertex 42 54 47
    endloop
  endfacet
  facet normal 0 1 0
    outer loop
      vertex 26 64 47
      vertex 36 64 47
      vertex 36 64 45
    endloop
  endfacet
  facet normal 1 0 0
    outer loop
      vertex 36 62 45
      vertex 36 64 47
      vertex 36 62 47
    endloop
  endfacet
  facet normal 0 1 0
    outer loop
      vertex 46 62 45
      vertex 36 62 47
      vertex 46 62 47
    endloop
  endfacet
  facet normal 0 -1 0
    outer loop
      vertex 46 54 45
      vertex 48 54 47
      vertex 46 54 47
    endloop
  endfacet
  facet normal 0 -1 0
    outer loop
      vertex 50 54 45
      vertex 52 54 47
      vertex 50 54 47
    endloop
  endfacet
  facet normal 0 -1 0
    outer loop
      vertex 54 54 45
      vertex 56 54 47
      vertex 54 54 47
    endloop
  endfacet
  facet normal 0 -1 0
    outer loop
      vertex 58 54 45
      vertex 60 54 47
      vertex 58 54 47
    endloop
  endfacet
  facet normal -1 0 0
    outer loop
      vertex 46 64 47
      vertex 46 62 45
      vertex 46 62 47
    endloop
  endfacet
  facet normal 0 1 0
    outer loop
      vertex 46 64 47
      vertex 56 64 47
      vertex 56 64 45
    endloop
  endfacet
  facet normal 1 0 0
    outer loop
      vertex 56 62 45
      vertex 56 64 47
      vertex 56 62 47
    endloop
  endfacet
  facet normal 0 0 1
    outer loop
      vertex 30 54 47
      vertex 32 54 47
      vertex 36 62 47
    endloop
  endfacet
  facet normal 0 0 1
    outer loop
      vertex 32 54 47
      vertex 34 54 47
      vertex 36 62 47
    endloop
  endfacet
  facet normal 0 0 1
    outer loop
      vertex 34 54 47
      vertex 36 54 47
      vertex 36 62 47
    endloop
  endfacet
  facet normal 0 0 1
    outer loop
      vertex 26 62 47
      vertex 30 54 47
      vertex 36 62 47
    endloop
  endfacet
  facet normal 0 0 1
    outer loop
      vertex 26 64 47
      vertex 26 62 47
      vertex 36 62 47
    endloop
  endfacet
  facet normal 0 0 1
    outer loop
      vertex 26 64 47
      vertex 36 62 47
      vertex 36 64 47
    endloop
  endfacet
  facet normal 0 0 1
    outer loop
      vertex 36 54 47
      vertex 38 54 47
      vertex 36 62 47
    endloop
  endfacet
  facet normal 0 0 1
    outer loop
      vertex 38 54 47
      vertex 40 54 47
      vertex 36 62 47
    endloop
  endfacet
  facet normal 0 0 1
    outer loop
      vertex 40 54 47
      vertex 42 54 47
      vertex 46 62 47
    endloop
  endfacet
  facet normal 0 0 1
    outer loop
      vertex 42 54 47
      vertex 44 54 47
      vertex 46 62 47
    endloop
  endfacet
  facet normal 0 0 1
    outer loop
      vertex 40 54 47
      vertex 46 62 47
      vertex 36 62 47
    endloop
  endfacet
  facet normal 0 0 1
    outer loop
      vertex 44 54 47
      vertex 46 54 47
      vertex 46 62 47
    endloop
  endfacet
  facet normal 0 0 1
    outer loop
      vertex 46 54 47
      vertex 48 54 47
      vertex 46 62 47
    endloop
  endfacet
  facet normal 0 0 1
    outer loop
      vertex 48 54 47
      vertex 50 54 47
      vertex 56 62 47
    endloop
  endfacet
  facet normal 0 0 1
    outer loop
      vertex 48 54 47
      vertex 56 62 47
      vertex 46 62 47
    endloop
  endfacet
  facet normal 0 0 1
    outer loop
      vertex 46 64 47
      vertex 46 62 47
      vertex 56 62 47
    endloop
  endfacet
  facet normal 0 0 1
    outer loop
      vertex 50 54 47
      vertex 52 54 47
      vertex 56 62 47
    endloop
  endfacet
  facet normal 0 0 1
    outer loop
      vertex 52 54 47
      vertex 54 54 47
      vertex 56 62 47
    endloop
  endfacet
  facet normal 0 0 1
    outer loop
      vertex 54 54 47
      vertex 56 54 47
      vertex 56 62 47
    endloop
  endfacet
  facet normal 0 0 1
    outer loop
      vertex 56 54 47
      vertex 58 54 47
      vertex 56 62 47
    endloop
  endfacet
  facet normal 0 0 1
    outer loop
      vertex 58 54 47
      vertex 60 54 47
      vertex 56 62 47
    endloop
  endfacet
  facet normal 0 0 1
    outer loop
      vertex 60 54 47
      vertex 62 54 47
      vertex 56 62 47
    endloop
  endfacet
  facet normal 0 0 1
    outer loop
      vertex 46 64 47
      vertex 56 62 47
      vertex 56 64 47
    endloop
  endfacet
  facet normal 0 0 -1
    outer loop
      vertex 56 -9 45
      vertex 60 -1 45
      vertex 66 -9 45
    endloop
  endfacet
  facet normal 0 0 -1
    outer loop
      vertex 60 -1 45
      vertex 62 -1 45
      vertex 66 -9 45
    endloop
  endfacet
  facet normal 0 0 -1
    outer loop
      vertex 64 -1 45
      vertex 66 -9 45
      vertex 62 -1 45
    endloop
  endfacet
  facet normal 0 0 -1
    outer loop
      vertex 64 -1 45
      vertex 66 -1 45
      vertex 66 -9 45
    endloop
  endfacet
  facet normal 0 0 -1
    outer loop
      vertex 68 -1 45
      vertex 66 -9 45
      vertex 66 -1 45
    endloop
  endfacet
  facet normal 0 0 -1
    outer loop
      vertex 66 -11 45
      vertex 66 -9 45
      vertex 76 -9 45
    endloop
  endfacet
  facet normal 0 0 -1
    outer loop
      vertex 66 -9 45
      vertex 70 -1 45
      vertex 76 -9 45
    endloop
  endfacet
  facet normal 0 0 -1
    outer loop
      vertex 66 -11 45
      vertex 76 -9 45
      vertex 76 -11 45
    endloop
  endfacet
  facet normal 0 0 -1
    outer loop
      vertex 68 -1 45
      vertex 70 -1 45
      vertex 66 -9 45
    endloop
  endfacet
  facet normal 0 0 -1
    outer loop
      vertex 76 -9 45
      vertex 70 -1 45
      vertex 72 -1 45
    endloop
  endfacet
  facet normal 0 0 -1
    outer loop
      vertex 76 -9 45
      vertex 72 -1 45
      vertex 74 -1 45
    endloop
  endfacet
  facet normal 0 0 -1
    outer loop
      vertex 76 -9 45
      vertex 80 -1 45
      vertex 86 -9 45
    endloop
  endfacet
  facet normal 0 0 -1
    outer loop
      vertex 76 -9 45
      vertex 74 -1 45
      vertex 76 -1 45
    endloop
  endfacet
  facet normal 0 0 -1
    outer loop
      vertex 76 -9 45
      vertex 76 -1 45
      vertex 78 -1 45
    endloop
  endfacet
  facet normal 0 0 -1
    outer loop
      vertex 76 -9 45
      vertex 78 -1 45
      vertex 80 -1 45
    endloop
  endfacet
  facet normal 0 0 -1
    outer loop
      vertex 86 -11 45
      vertex 86 -9 45
      vertex 96 -9 45
    endloop
  endfacet
  facet normal 0 0 -1
    outer loop
      vertex 80 -1 45
      vertex 82 -1 45
      vertex 86 -9 45
    endloop
  endfacet
  facet normal 0 0 -1
    outer loop
      vertex 84 -1 45
      vertex 86 -9 45
      vertex 82 -1 45
    endloop
  endfacet
  facet normal 0 0 -1
    outer loop
      vertex 84 -1 45
      vertex 86 -1 45
      vertex 86 -9 45
    endloop
  endfacet
  facet normal 0 0 -1
    outer loop
      vertex 88 -1 45
      vertex 86 -9 45
      vertex 86 -1 45
    endloop
  endfacet
  facet normal 0 0 -1
    outer loop
      vertex 88 -1 45
      vertex 90 -1 45
      vertex 86 -9 45
    endloop
  endfacet
  facet normal 0 -1 0
    outer loop
      vertex 56 -9 45
      vertex 66 -9 45
      vertex 66 -9 47
    endloop
  endfacet
  facet normal -1 0 0
    outer loop
      vertex 66 -11 45
      vertex 66 -11 47
      vertex 66 -9 45
    endloop
  endfacet
  facet normal 0 -1 0
    outer loop
      vertex 66 -11 45
      vertex 76 -11 45
      vertex 76 -11 47
    endloop
  endfacet
  facet normal 0 1 0
    outer loop
      vertex 64 -1 45
      vertex 62 -1 45
      vertex 62 -1 47
    endloop
  endfacet
  facet normal 0 1 0
    outer loop
      vertex 68 -1 45
      vertex 66 -1 45
      vertex 66 -1 47
    endloop
  endfacet
  facet normal 0 1 0
    outer loop
      vertex 72 -1 45
      vertex 70 -1 45
      vertex 70 -1 47
    endloop
  endfacet
  facet normal 0 1 0
    outer loop
      vertex 76 -1 45
      vertex 74 -1 45
      vertex 74 -1 47
    endloop
  endfacet
  facet normal 1 0 0
    outer loop
      vertex 76 -11 47
      vertex 76 -11 45
      vertex 76 -9 45
    endloop
  endfacet
  facet normal 0 -1 0
    outer loop
      vertex 76 -9 45
      vertex 86 -9 45
      vertex 86 -9 47
    endloop
  endfacet
  facet normal -1 0 0
    outer loop
      vertex 86 -11 45
      vertex 86 -11 47
      vertex 86 -9 45
    endloop
  endfacet
  facet normal 0 1 0
    outer loop
      vertex 80 -1 45
      vertex 78 -1 45
      vertex 78 -1 47
    endloop
  endfacet
  facet normal 0 1 0
    outer loop
      vertex 84 -1 45
      vertex 82 -1 45
      vertex 82 -1 47
    endloop
  endfacet
  facet normal 0 1 0
    outer loop
      vertex 88 -1 45
      vertex 86 -1 45
      vertex 86 -1 47
    endloop
  endfacet
  facet normal 0 0 -1
    outer loop
      vertex 60 54 45
      vertex 62 -1 45
      vertex 60 -1 45
    endloop
  endfacet
  facet normal 0 0 -1
    outer loop
      vertex 64 54 45
      vertex 66 -1 45
      vertex 64 -1 45
    endloop
  endfacet
  facet normal 0 0 -1
    outer loop
      vertex 68 54 45
      vertex 70 -1 45
      vertex 68 -1 45
    endloop
  endfacet
  facet normal 0 0 -1
    outer loop
      vertex 72 54 45
      vertex 74 -1 45
      vertex 72 -1 45
    endloop
  endfacet
  facet normal 0 0 -1
    outer loop
      vertex 76 54 45
      vertex 78 -1 45
      vertex 76 -1 45
    endloop
  endfacet
  facet normal 0 0 -1
    outer loop
      vertex 80 54 45
      vertex 82 -1 45
      vertex 80 -1 45
    endloop
  endfacet
  facet normal 0 0 -1
    outer loop
      vertex 84 54 45
      vertex 86 -1 45
      vertex 84 -1 45
    endloop
  endfacet
  facet normal 0 0 -1
    outer loop
      vertex 88 54 45
      vertex 90 -1 45
      vertex 88 -1 45
    endloop
  endfacet
  facet normal -1 0 0
    outer loop
      vertex 60 54 45
      vertex 60 -1 45
      vertex 60 -1 47
    endloop
  endfacet
  facet normal -1 0 0
    outer loop
      vertex 64 54 45
      vertex 64 -1 45
      vertex 64 -1 47
    endloop
  endfacet
  facet normal -1 0 0
    outer loop
      vertex 68 54 45
      vertex 68 -1 45
      vertex 68 -1 47
    endloop
  endfacet
  facet normal -1 0 0
    outer loop
      vertex 72 54 45
      vertex 72 -1 45
      vertex 72 -1 47
    endloop
  endfacet
  facet normal -1 0 0
    outer loop
      vertex 76 54 45
      vertex 76 -1 45
      vertex 76 -1 47
    endloop
  endfacet
  facet normal -1 0 0
    outer loop
      vertex 80 54 45
      vertex 80 -1 45
      vertex 80 -1 47
    endloop
  endfacet
  facet normal -1 0 0
    outer loop
      vertex 84 54 45
      vertex 84 -1 45
      vertex 84 -1 47
    endloop
  endfacet
  facet normal -1 0 0
    outer loop
      vertex 88 54 45
      vertex 88 -1 45
      vertex 88 -1 47
    endloop
  endfacet
  facet normal 0 0 -1
    outer loop
      vertex 86 -11 45
      vertex 96 -9 45
      vertex 96 -11 45
    endloop
  endfacet
  facet normal 0 0 -1
    outer loop
      vertex 96 -9 45
      vertex 86 -9 45
      vertex 90 -1 45
    endloop
  endfacet
  facet normal 0 0 -1
    outer loop
      vertex 92 -1 45
      vertex 96 -9 45
      vertex 90 -1 45
    endloop
  endfacet
  facet normal 0 0 -1
    outer loop
      vertex 92 -1 45
      vertex 94 -1 45
      vertex 96 -9 45
    endloop
  endfacet
  facet normal 0 0 -1
    outer loop
      vertex 96 -1 45
      vertex 96 -9 45
      vertex 94 -1 45
    endloop
  endfacet
  facet normal 0 0 -1
    outer loop
      vertex 96 -1 45
      vertex 98 -1 45
      vertex 96 -9 45
    endloop
  endfacet
  facet normal 0 0 -1
    outer loop
      vertex 96 -9 45
      vertex 100 -1 45
      vertex 106 -9 45
    endloop
  endfacet
  facet normal 0 0 -1
    outer loop
      vertex 96 -9 45
      vertex 98 -1 45
      vertex 100 -1 45
    endloop
  endfacet
  facet normal 0 0 -1
    outer loop
      vertex 100 -1 45
      vertex 102 -1 45
      vertex 106 -9 45
    endloop
  endfacet
  facet normal 0 0 -1
    outer loop
      vertex 104 -1 45
      vertex 106 -9 45
      vertex 102 -1 45
    endloop
  endfacet
  facet normal 0 0 -1
    outer loop
      vertex 106 -11 45
      vertex 106 -9 45
      vertex 116 -9 45
    endloop
  endfacet
  facet normal 0 0 -1
    outer loop
      vertex 106 -11 45
      vertex 116 -9 45
      vertex 116 -11 45
    endloop
  endfacet
  facet normal 0 0 -1
    outer loop
      vertex 104 -1 45
      vertex 119 0 45
      vertex 106 -9 45
    endloop
  endfacet
  facet normal 0 0 -1
    outer loop
      vertex 116 -9 45
      vertex 106 -9 45
      vertex 119 0 45
    endloop
  endfacet
  facet normal 0 0 -1
    outer loop
      vertex 121 -9 45
      vertex 116 -9 45
      vertex 119 0 45
    endloop
  endfacet
  facet normal 0 0 -1
    outer loop
      vertex 121 -9 45
      vertex 119 0 45
      vertex 121 0 45
    endloop
  endfacet
  facet normal 0 0 -1
    outer loop
      vertex 104 -1 45
      vertex 119 12 45
      vertex 119 0 45
    endloop
  endfacet
  facet normal 0 -1 0
    outer loop
      vertex 86 -11 45
      vertex 96 -11 45
      vertex 96 -11 47
    endloop
  endfacet
  facet normal 1 0 0
    outer loop
      vertex 96 -11 47
      vertex 96 -11 45
      vertex 96 -9 45
    endloop
  endfacet
  facet normal 0 -1 0
    outer loop
      vertex 96 -9 45
      vertex 106 -9 45
      vertex 106 -9 47
    endloop
  endfacet
  facet normal 0 1 0
    outer loop
      vertex 92 -1 45
      vertex 90 -1 45
      vertex 90 -1 47
    endloop
  endfacet
  facet normal 0 1 0
    outer loop
      vertex 96 -1 45
      vertex 94 -1 45
      vertex 94 -1 47
    endloop
  endfacet
  facet normal 0 1 0
    outer loop
      vertex 100 -1 45
      vertex 98 -1 45
      vertex 98 -1 47
    endloop
  endfacet
  facet normal 0 1 0
    outer loop
      vertex 104 -1 45
      vertex 102 -1 45
      vertex 102 -1 47
    endloop
  endfacet
  facet normal -1 0 0
    outer loop
      vertex 106 -11 45
      vertex 106 -11 47
      vertex 106 -9 45
    endloop
  endfacet
  facet normal 0 -1 0
    outer loop
      vertex 106 -11 45
      vertex 116 -11 45
      vertex 116 -11 47
    endloop
  endfacet
  facet normal 1 0 0
    outer loop
      vertex 116 -11 47
      vertex 116 -11 45
      vertex 116 -9 45
    endloop
  endfacet
  facet normal 0 -1 0
    outer loop
      vertex 121 -9 45
      vertex 121 -9 47
      vertex 116 -9 45
    endloop
  endfacet
  facet normal 1 0 0
    outer loop
      vertex 121 -9 45
      vertex 121 0 45
      vertex 121 0 47
    endloop
  endfacet
  facet normal 0 1 0
    outer loop
      vertex 121 0 45
      vertex 119 0 45
      vertex 121 0 47
    endloop
  endfacet
  facet normal 0 0 -1
    outer loop
      vertex 92 54 45
      vertex 94 -1 45
      vertex 92 -1 45
    endloop
  endfacet
  facet normal 0 0 -1
    outer loop
      vertex 96 54 45
      vertex 98 -1 45
      vertex 96 -1 45
    endloop
  endfacet
  facet normal 0 0 -1
    outer loop
      vertex 100 54 45
      vertex 102 -1 45
      vertex 100 -1 45
    endloop
  endfacet
  facet normal 0 0 -1
    outer loop
      vertex 104 -1 45
      vertex 119 22 45
      vertex 119 12 45
    endloop
  endfacet
  facet normal 0 0 -1
    outer loop
      vertex 121 12 45
      vertex 119 12 45
      vertex 119 22 45
    endloop
  endfacet
  facet normal 0 0 -1
    outer loop
      vertex 104 54 45
      vertex 119 22 45
      vertex 104 -1 45
    endloop
  endfacet
  facet normal 0 0 -1
    outer loop
      vertex 121 12 45
      vertex 119 22 45
      vertex 121 22 45
    endloop
  endfacet
  facet normal -1 0 0
    outer loop
      vertex 92 54 45
      vertex 92 -1 45
      vertex 92 -1 47
    endloop
  endfacet
  facet normal -1 0 0
    outer loop
      vertex 96 54 45
      vertex 96 -1 45
      vertex 96 -1 47
    endloop
  endfacet
  facet normal -1 0 0
    outer loop
      vertex 100 54 45
      vertex 100 -1 45
      vertex 100 -1 47
    endloop
  endfacet
  facet normal -1 0 0
    outer loop
      vertex 104 54 45
      vertex 104 -1 45
      vertex 104 -1 47
    endloop
  endfacet
  facet normal 1 0 0
    outer loop
      vertex 119 0 45
      vertex 119 12 45
      vertex 119 12 47
    endloop
  endfacet
  facet normal 0 -1 0
    outer loop
      vertex 121 12 45
      vertex 119 12 47
      vertex 119 12 45
    endloop
  endfacet
  facet normal 1 0 0
    outer loop
      vertex 121 12 45
      vertex 121 22 45
      vertex 121 22 47
    endloop
  endfacet
  facet normal 0 1 0
    outer loop
      vertex 121 22 45
      vertex 119 22 45
      vertex 121 22 47
    endloop
  endfacet
  facet normal -1 0 0
    outer loop
      vertex 66 -11 47
      vertex 66 -9 47
      vertex 66 -9 45
    endloop
  endfacet
  facet normal 0 -1 0
    outer loop
      vertex 66 -11 45
      vertex 76 -11 47
      vertex 66 -11 47
    endloop
  endfacet
  facet normal 0 1 0
    outer loop
      vertex 64 -1 47
      vertex 64 -1 45
      vertex 62 -1 47
    endloop
  endfacet
  facet normal 0 1 0
    outer loop
      vertex 68 -1 47
      vertex 68 -1 45
      vertex 66 -1 47
    endloop
  endfacet
  facet normal 0 1 0
    outer loop
      vertex 72 -1 47
      vertex 72 -1 45
      vertex 70 -1 47
    endloop
  endfacet
  facet normal 1 0 0
    outer loop
      vertex 76 -11 47
      vertex 76 -9 45
      vertex 76 -9 47
    endloop
  endfacet
  facet normal 0 -1 0
    outer loop
      vertex 76 -9 47
      vertex 76 -9 45
      vertex 86 -9 47
    endloop
  endfacet
  facet normal -1 0 0
    outer loop
      vertex 86 -11 47
      vertex 86 -9 47
      vertex 86 -9 45
    endloop
  endfacet
  facet normal 0 -1 0
    outer loop
      vertex 86 -11 45
      vertex 96 -11 47
      vertex 86 -11 47
    endloop
  endfacet
  facet normal 0 1 0
    outer loop
      vertex 76 -1 47
      vertex 76 -1 45
      vertex 74 -1 47
    endloop
  endfacet
  facet normal 0 1 0
    outer loop
      vertex 80 -1 47
      vertex 80 -1 45
      vertex 78 -1 47
    endloop
  endfacet
  facet normal 0 1 0
    outer loop
      vertex 84 -1 47
      vertex 84 -1 45
      vertex 82 -1 47
    endloop
  endfacet
  facet normal 0 1 0
    outer loop
      vertex 88 -1 47
      vertex 88 -1 45
      vertex 86 -1 47
    endloop
  endfacet
  facet normal 0 0 1
    outer loop
      vertex 56 -9 47
      vertex 66 -9 47
      vertex 60 -1 47
    endloop
  endfacet
  facet normal 0 0 1
    outer loop
      vertex 60 -1 47
      vertex 66 -9 47
      vertex 62 -1 47
    endloop
  endfacet
  facet normal 0 0 1
    outer loop
      vertex 64 -1 47
      vertex 62 -1 47
      vertex 66 -9 47
    endloop
  endfacet
  facet normal 0 0 1
    outer loop
      vertex 64 -1 47
      vertex 66 -9 47
      vertex 66 -1 47
    endloop
  endfacet
  facet normal 0 0 1
    outer loop
      vertex 68 -1 47
      vertex 66 -1 47
      vertex 66 -9 47
    endloop
  endfacet
  facet normal 0 0 1
    outer loop
      vertex 66 -11 47
      vertex 76 -11 47
      vertex 66 -9 47
    endloop
  endfacet
  facet normal 0 0 1
    outer loop
      vertex 76 -11 47
      vertex 76 -9 47
      vertex 66 -9 47
    endloop
  endfacet
  facet normal 0 0 1
    outer loop
      vertex 66 -9 47
      vertex 76 -9 47
      vertex 74 -1 47
    endloop
  endfacet
  facet normal 0 0 1
    outer loop
      vertex 68 -1 47
      vertex 66 -9 47
      vertex 70 -1 47
    endloop
  endfacet
  facet normal 0 0 1
    outer loop
      vertex 66 -9 47
      vertex 72 -1 47
      vertex 70 -1 47
    endloop
  endfacet
  facet normal 0 0 1
    outer loop
      vertex 66 -9 47
      vertex 74 -1 47
      vertex 72 -1 47
    endloop
  endfacet
  facet normal 0 0 1
    outer loop
      vertex 76 -9 47
      vertex 86 -9 47
      vertex 82 -1 47
    endloop
  endfacet
  facet normal 0 0 1
    outer loop
      vertex 76 -9 47
      vertex 76 -1 47
      vertex 74 -1 47
    endloop
  endfacet
  facet normal 0 0 1
    outer loop
      vertex 76 -9 47
      vertex 78 -1 47
      vertex 76 -1 47
    endloop
  endfacet
  facet normal 0 0 1
    outer loop
      vertex 76 -9 47
      vertex 80 -1 47
      vertex 78 -1 47
    endloop
  endfacet
  facet normal 0 0 1
    outer loop
      vertex 76 -9 47
      vertex 82 -1 47
      vertex 80 -1 47
    endloop
  endfacet
  facet normal 0 0 1
    outer loop
      vertex 86 -11 47
      vertex 96 -11 47
      vertex 86 -9 47
    endloop
  endfacet
  facet normal 0 0 1
    outer loop
      vertex 84 -1 47
      vertex 82 -1 47
      vertex 86 -9 47
    endloop
  endfacet
  facet normal 0 0 1
    outer loop
      vertex 84 -1 47
      vertex 86 -9 47
      vertex 86 -1 47
    endloop
  endfacet
  facet normal 0 0 1
    outer loop
      vertex 88 -1 47
      vertex 86 -1 47
      vertex 86 -9 47
    endloop
  endfacet
  facet normal 0 0 1
    outer loop
      vertex 88 -1 47
      vertex 86 -9 47
      vertex 90 -1 47
    endloop
  endfacet
  facet normal 0 0 1
    outer loop
      vertex 92 -1 47
      vertex 90 -1 47
      vertex 86 -9 47
    endloop
  endfacet
  facet normal 1 0 0
    outer loop
      vertex 62 54 47
      vertex 62 -1 47
      vertex 62 -1 45
    endloop
  endfacet
  facet normal 1 0 0
    outer loop
      vertex 66 54 47
      vertex 66 -1 47
      vertex 66 -1 45
    endloop
  endfacet
  facet normal 1 0 0
    outer loop
      vertex 70 54 47
      vertex 70 -1 47
      vertex 70 -1 45
    endloop
  endfacet
  facet normal 1 0 0
    outer loop
      vertex 74 54 47
      vertex 74 -1 47
      vertex 74 -1 45
    endloop
  endfacet
  facet normal 1 0 0
    outer loop
      vertex 78 54 47
      vertex 78 -1 47
      vertex 78 -1 45
    endloop
  endfacet
  facet normal 1 0 0
    outer loop
      vertex 82 54 47
      vertex 82 -1 47
      vertex 82 -1 45
    endloop
  endfacet
  facet normal 1 0 0
    outer loop
      vertex 86 54 47
      vertex 86 -1 47
      vertex 86 -1 45
    endloop
  endfacet
  facet normal 1 0 0
    outer loop
      vertex 90 54 47
      vertex 90 -1 47
      vertex 90 -1 45
    endloop
  endfacet
  facet normal 0 0 1
    outer loop
      vertex 60 -1 47
      vertex 62 -1 47
      vertex 62 54 47
    endloop
  endfacet
  facet normal 0 0 1
    outer loop
      vertex 64 -1 47
      vertex 66 -1 47
      vertex 66 54 47
    endloop
  endfacet
  facet normal 0 0 1
    outer loop
      vertex 68 -1 47
      vertex 70 -1 47
      vertex 70 54 47
    endloop
  endfacet
  facet normal 0 0 1
    outer loop
      vertex 72 -1 47
      vertex 74 -1 47
      vertex 74 54 47
    endloop
  endfacet
  facet normal 0 0 1
    outer loop
      vertex 76 -1 47
      vertex 78 -1 47
      vertex 78 54 47
    endloop
  endfacet
  facet normal 0 0 1
    outer loop
      vertex 80 -1 47
      vertex 82 -1 47
      vertex 82 54 47
    endloop
  endfacet
  facet normal 0 0 1
    outer loop
      vertex 84 -1 47
      vertex 86 -1 47
      vertex 86 54 47
    endloop
  endfacet
  facet normal 0 0 1
    outer loop
      vertex 90 54 47
      vertex 88 -1 47
      vertex 90 -1 47
    endloop
  endfacet
  facet normal 1 0 0
    outer loop
      vertex 96 -11 47
      vertex 96 -9 45
      vertex 96 -9 47
    endloop
  endfacet
  facet normal 0 -1 0
    outer loop
      vertex 96 -9 47
      vertex 96 -9 45
      vertex 106 -9 47
    endloop
  endfacet
  facet normal 0 1 0
    outer loop
      vertex 92 -1 47
      vertex 92 -1 45
      vertex 90 -1 47
    endloop
  endfacet
  facet normal 0 1 0
    outer loop
      vertex 96 -1 47
      vertex 96 -1 45
      vertex 94 -1 47
    endloop
  endfacet
  facet normal 0 1 0
    outer loop
      vertex 100 -1 47
      vertex 100 -1 45
      vertex 98 -1 47
    endloop
  endfacet
  facet normal 0 1 0
    outer loop
      vertex 104 -1 47
      vertex 104 -1 45
      vertex 102 -1 47
    endloop
  endfacet
  facet normal -1 0 0
    outer loop
      vertex 106 -11 47
      vertex 106 -9 47
      vertex 106 -9 45
    endloop
  endfacet
  facet normal 0 -1 0
    outer loop
      vertex 106 -11 45
      vertex 116 -11 47
      vertex 106 -11 47
    endloop
  endfacet
  facet normal 1 0 0
    outer loop
      vertex 116 -11 47
      vertex 116 -9 45
      vertex 116 -9 47
    endloop
  endfacet
  facet normal 0 -1 0
    outer loop
      vertex 121 -9 47
      vertex 116 -9 47
      vertex 116 -9 45
    endloop
  endfacet
  facet normal 1 0 0
    outer loop
      vertex 121 -9 47
      vertex 121 -9 45
      vertex 121 0 47
    endloop
  endfacet
  facet normal 0 1 0
    outer loop
      vertex 119 0 47
      vertex 121 0 47
      vertex 119 0 45
    endloop
  endfacet
  facet normal 1 0 0
    outer loop
      vertex 119 0 45
      vertex 119 12 47
      vertex 119 0 47
    endloop
  endfacet
  facet normal 0 0 1
    outer loop
      vertex 96 -11 47
      vertex 96 -9 47
      vertex 86 -9 47
    endloop
  endfacet
  facet normal 0 0 1
    outer loop
      vertex 92 -1 47
      vertex 86 -9 47
      vertex 96 -9 47
    endloop
  endfacet
  facet normal 0 0 1
    outer loop
      vertex 92 -1 47
      vertex 96 -9 47
      vertex 94 -1 47
    endloop
  endfacet
  facet normal 0 0 1
    outer loop
      vertex 96 -1 47
      vertex 94 -1 47
      vertex 96 -9 47
    endloop
  endfacet
  facet normal 0 0 1
    outer loop
      vertex 96 -1 47
      vertex 96 -9 47
      vertex 98 -1 47
    endloop
  endfacet
  facet normal 0 0 1
    outer loop
      vertex 96 -9 47
      vertex 106 -9 47
      vertex 100 -1 47
    endloop
  endfacet
  facet normal 0 0 1
    outer loop
      vertex 96 -9 47
      vertex 100 -1 47
      vertex 98 -1 47
    endloop
  endfacet
  facet normal 0 0 1
    outer loop
      vertex 100 -1 47
      vertex 106 -9 47
      vertex 102 -1 47
    endloop
  endfacet
  facet normal 0 0 1
    outer loop
      vertex 104 -1 47
      vertex 102 -1 47
      vertex 106 -9 47
    endloop
  endfacet
  facet normal 0 0 1
    outer loop
      vertex 106 -11 47
      vertex 116 -11 47
      vertex 106 -9 47
    endloop
  endfacet
  facet normal 0 0 1
    outer loop
      vertex 104 -1 47
      vertex 106 -9 47
      vertex 116 -9 47
    endloop
  endfacet
  facet normal 0 0 1
    outer loop
      vertex 116 -11 47
      vertex 116 -9 47
      vertex 106 -9 47
    endloop
  endfacet
  facet normal 0 0 1
    outer loop
      vertex 121 -9 47
      vertex 104 -1 47
      vertex 116 -9 47
    endloop
  endfacet
  facet normal 0 0 1
    outer loop
      vertex 121 -9 47
      vertex 119 0 47
      vertex 104 -1 47
    endloop
  endfacet
  facet normal 0 0 1
    outer loop
      vertex 121 -9 47
      vertex 121 0 47
      vertex 119 0 47
    endloop
  endfacet
  facet normal 0 0 1
    outer loop
      vertex 104 -1 47
      vertex 119 0 47
      vertex 119 12 47
    endloop
  endfacet
  facet normal 1 0 0
    outer loop
      vertex 94 54 47
      vertex 94 -1 47
      vertex 94 -1 45
    endloop
  endfacet
  facet normal 1 0 0
    outer loop
      vertex 98 54 47
      vertex 98 -1 47
      vertex 98 -1 45
    endloop
  endfacet
  facet normal 1 0 0
    outer loop
      vertex 102 54 47
      vertex 102 -1 47
      vertex 102 -1 45
    endloop
  endfacet
  facet normal 0 -1 0
    outer loop
      vertex 121 12 47
      vertex 119 12 47
      vertex 121 12 45
    endloop
  endfacet
  facet normal 1 0 0
    outer loop
      vertex 121 12 47
      vertex 121 12 45
      vertex 121 22 47
    endloop
  endfacet
  facet normal 0 1 0
    outer loop
      vertex 119 22 45
      vertex 119 22 47
      vertex 121 22 47
    endloop
  endfacet
  facet normal 1 0 0
    outer loop
      vertex 119 22 45
      vertex 119 34 47
      vertex 119 22 47
    endloop
  endfacet
  facet normal 0 0 1
    outer loop
      vertex 94 54 47
      vertex 92 -1 47
      vertex 94 -1 47
    endloop
  endfacet
  facet normal 0 0 1
    outer loop
      vertex 98 54 47
      vertex 96 -1 47
      vertex 98 -1 47
    endloop
  endfacet
  facet normal 0 0 1
    outer loop
      vertex 102 54 47
      vertex 100 -1 47
      vertex 102 -1 47
    endloop
  endfacet
  facet normal 0 0 1
    outer loop
      vertex 104 -1 47
      vertex 119 12 47
      vertex 119 22 47
    endloop
  endfacet
  facet normal 0 0 1
    outer loop
      vertex 121 12 47
      vertex 121 22 47
      vertex 119 12 47
    endloop
  endfacet
  facet normal 0 0 1
    outer loop
      vertex 119 34 47
      vertex 104 -1 47
      vertex 119 22 47
    endloop
  endfacet
  facet normal 0 0 1
    outer loop
      vertex 119 12 47
      vertex 121 22 47
      vertex 119 22 47
    endloop
  endfacet
  facet normal 0 0 1
    outer loop
      vertex 119 34 47
      vertex 119 44 47
      vertex 104 -1 47
    endloop
  endfacet
  facet normal 0 0 -1
    outer loop
      vertex 62 -1 45
      vertex 60 54 45
      vertex 62 54 45
    endloop
  endfacet
  facet normal 0 0 -1
    outer loop
      vertex 66 -1 45
      vertex 64 54 45
      vertex 66 54 45
    endloop
  endfacet
  facet normal 0 0 -1
    outer loop
      vertex 70 -1 45
      vertex 68 54 45
      vertex 70 54 45
    endloop
  endfacet
  facet normal 0 0 -1
    outer loop
      vertex 74 -1 45
      vertex 72 54 45
      vertex 74 54 45
    endloop
  endfacet
  facet normal 0 0 -1
    outer loop
      vertex 78 -1 45
      vertex 76 54 45
      vertex 78 54 45
    endloop
  endfacet
  facet normal 0 0 -1
    outer loop
      vertex 82 -1 45
      vertex 80 54 45
      vertex 82 54 45
    endloop
  endfacet
  facet normal 0 0 -1
    outer loop
      vertex 86 -1 45
      vertex 84 54 45
      vertex 86 54 45
    endloop
  endfacet
  facet normal 0 0 -1
    outer loop
      vertex 90 -1 45
      vertex 88 54 45
      vertex 90 54 45
    endloop
  endfacet
  facet normal 1 0 0
    outer loop
      vertex 62 -1 45
      vertex 62 54 45
      vertex 62 54 47
    endloop
  endfacet
  facet normal 1 0 0
    outer loop
      vertex 66 -1 45
      vertex 66 54 45
      vertex 66 54 47
    endloop
  endfacet
  facet normal 1 0 0
    outer loop
      vertex 70 -1 45
      vertex 70 54 45
      vertex 70 54 47
    endloop
  endfacet
  facet normal 1 0 0
    outer loop
      vertex 74 -1 45
      vertex 74 54 45
      vertex 74 54 47
    endloop
  endfacet
  facet normal 1 0 0
    outer loop
      vertex 78 -1 45
      vertex 78 54 45
      vertex 78 54 47
    endloop
  endfacet
  facet normal 1 0 0
    outer loop
      vertex 82 -1 45
      vertex 82 54 45
      vertex 82 54 47
    endloop
  endfacet
  facet normal 1 0 0
    outer loop
      vertex 86 -1 45
      vertex 86 54 45
      vertex 86 54 47
    endloop
  endfacet
  facet normal 1 0 0
    outer loop
      vertex 90 -1 45
      vertex 90 54 45
      vertex 90 54 47
    endloop
  endfacet
  facet normal 0 0 -1
    outer loop
      vertex 62 54 45
      vertex 66 62 45
      vertex 64 54 45
    endloop
  endfacet
  facet normal 0 0 -1
    outer loop
      vertex 66 54 45
      vertex 64 54 45
      vertex 66 62 45
    endloop
  endfacet
  facet normal 0 0 -1
    outer loop
      vertex 66 54 45
      vertex 66 62 45
      vertex 68 54 45
    endloop
  endfacet
  facet normal 0 0 -1
    outer loop
      vertex 62 54 45
      vertex 56 62 45
      vertex 66 62 45
    endloop
  endfacet
  facet normal 0 0 -1
    outer loop
      vertex 66 62 45
      vertex 70 54 45
      vertex 68 54 45
    endloop
  endfacet
  facet normal 0 0 -1
    outer loop
      vertex 66 62 45
      vertex 72 54 45
      vertex 70 54 45
    endloop
  endfacet
  facet normal 0 0 -1
    outer loop
      vertex 74 54 45
      vertex 72 54 45
      vertex 76 62 45
    endloop
  endfacet
  facet normal 0 0 -1
    outer loop
      vertex 66 64 45
      vertex 76 64 45
      vertex 66 62 45
    endloop
  endfacet
  facet normal 0 0 -1
    outer loop
      vertex 66 62 45
      vertex 76 62 45
      vertex 72 54 45
    endloop
  endfacet
  facet normal 0 0 -1
    outer loop
      vertex 76 64 45
      vertex 76 62 45
      vertex 66 62 45
    endloop
  endfacet
  facet normal 0 0 -1
    outer loop
      vertex 74 54 45
      vertex 76 62 45
      vertex 76 54 45
    endloop
  endfacet
  facet normal 0 0 -1
    outer loop
      vertex 78 54 45
      vertex 76 54 45
      vertex 76 62 45
    endloop
  endfacet
  facet normal 0 0 -1
    outer loop
      vertex 78 54 45
      vertex 76 62 45
      vertex 80 54 45
    endloop
  endfacet
  facet normal 0 0 -1
    outer loop
      vertex 82 54 45
      vertex 80 54 45
      vertex 76 62 45
    endloop
  endfacet
  facet normal 0 0 -1
    outer loop
      vertex 82 54 45
      vertex 76 62 45
      vertex 86 62 45
    endloop
  endfacet
  facet normal 0 0 -1
    outer loop
      vertex 82 54 45
      vertex 86 62 45
      vertex 84 54 45
    endloop
  endfacet
  facet normal 0 0 -1
    outer loop
      vertex 86 62 45
      vertex 86 54 45
      vertex 84 54 45
    endloop
  endfacet
  facet normal 0 0 -1
    outer loop
      vertex 86 62 45
      vertex 88 54 45
      vertex 86 54 45
    endloop
  endfacet
  facet normal 0 0 -1
    outer loop
      vertex 86 62 45
      vertex 90 54 45
      vertex 88 54 45
    endloop
  endfacet
  facet normal 0 0 -1
    outer loop
      vertex 86 62 45
      vertex 92 54 45
      vertex 90 54 45
    endloop
  endfacet
  facet normal 0 0 -1
    outer loop
      vertex 86 64 45
      vertex 96 64 45
      vertex 86 62 45
    endloop
  endfacet
  facet normal 0 -1 0
    outer loop
      vertex 62 54 45
      vertex 64 54 45
      vertex 64 54 47
    endloop
  endfacet
  facet normal 0 -1 0
    outer loop
      vertex 66 54 45
      vertex 68 54 45
      vertex 68 54 47
    endloop
  endfacet
  facet normal 0 -1 0
    outer loop
      vertex 70 54 45
      vertex 72 54 45
      vertex 72 54 47
    endloop
  endfacet
  facet normal -1 0 0
    outer loop
      vertex 66 64 45
      vertex 66 62 45
      vertex 66 64 47
    endloop
  endfacet
  facet normal 0 1 0
    outer loop
      vertex 66 64 45
      vertex 66 64 47
      vertex 76 64 45
    endloop
  endfacet
  facet normal 0 -1 0
    outer loop
      vertex 74 54 45
      vertex 76 54 45
      vertex 76 54 47
    endloop
  endfacet
  facet normal 0 -1 0
    outer loop
      vertex 78 54 45
      vertex 80 54 45
      vertex 80 54 47
    endloop
  endfacet
  facet normal 0 -1 0
    outer loop
      vertex 82 54 45
      vertex 84 54 45
      vertex 84 54 47
    endloop
  endfacet
  facet normal 0 -1 0
    outer loop
      vertex 86 54 45
      vertex 88 54 45
      vertex 88 54 47
    endloop
  endfacet
  facet normal 1 0 0
    outer loop
      vertex 76 64 45
      vertex 76 64 47
      vertex 76 62 45
    endloop
  endfacet
  facet normal 0 1 0
    outer loop
      vertex 86 62 45
      vertex 76 62 45
      vertex 76 62 47
    endloop
  endfacet
  facet normal -1 0 0
    outer loop
      vertex 86 64 45
      vertex 86 62 45
      vertex 86 64 47
    endloop
  endfacet
  facet normal 0 1 0
    outer loop
      vertex 86 64 45
      vertex 86 64 47
      vertex 96 64 45
    endloop
  endfacet
  facet normal 0 0 -1
    outer loop
      vertex 94 -1 45
      vertex 92 54 45
      vertex 94 54 45
    endloop
  endfacet
  facet normal 0 0 -1
    outer loop
      vertex 98 -1 45
      vertex 96 54 45
      vertex 98 54 45
    endloop
  endfacet
  facet normal 0 0 -1
    outer loop
      vertex 102 -1 45
      vertex 100 54 45
      vertex 102 54 45
    endloop
  endfacet
  facet normal 0 0 -1
    outer loop
      vertex 104 54 45
      vertex 119 34 45
      vertex 119 22 45
    endloop
  endfacet
  facet normal 0 0 -1
    outer loop
      vertex 121 34 45
      vertex 119 34 45
      vertex 119 44 45
    endloop
  endfacet
  facet normal 0 0 -1
    outer loop
      vertex 104 54 45
      vertex 119 44 45
      vertex 119 34 45
    endloop
  endfacet
  facet normal 0 0 -1
    outer loop
      vertex 121 34 45
      vertex 119 44 45
      vertex 121 44 45
    endloop
  endfacet
  facet normal 1 0 0
    outer loop
      vertex 94 -1 45
      vertex 94 54 45
      vertex 94 54 47
    endloop
  endfacet
  facet normal 1 0 0
    outer loop
      vertex 98 -1 45
      vertex 98 54 45
      vertex 98 54 47
    endloop
  endfacet
  facet normal 1 0 0
    outer loop
      vertex 102 -1 45
      vertex 102 54 45
      vertex 102 54 47
    endloop
  endfacet
  facet normal 1 0 0
    outer loop
      vertex 119 22 45
      vertex 119 34 45
      vertex 119 34 47
    endloop
  endfacet
  facet normal 0 -1 0
    outer loop
      vertex 121 34 45
      vertex 119 34 47
      vertex 119 34 45
    endloop
  endfacet
  facet normal 1 0 0
    outer loop
      vertex 121 34 45
      vertex 121 44 45
      vertex 121 44 47
    endloop
  endfacet
  facet normal 0 1 0
    outer loop
      vertex 121 44 45
      vertex 119 44 45
      vertex 121 44 47
    endloop
  endfacet
  facet normal 0 0 -1
    outer loop
      vertex 94 54 45
      vertex 92 54 45
      vertex 96 62 45
    endloop
  endfacet
  facet normal 0 0 -1
    outer loop
      vertex 94 54 45
      vertex 96 62 45
      vertex 96 54 45
    endloop
  endfacet
  facet normal 0 0 -1
    outer loop
      vertex 98 54 45
      vertex 96 54 45
      vertex 96 62 45
    endloop
  endfacet
  facet normal 0 0 -1
    outer loop
      vertex 86 62 45
      vertex 96 62 45
      vertex 92 54 45
    endloop
  endfacet
  facet normal 0 0 -1
    outer loop
      vertex 96 64 45
      vertex 96 62 45
      vertex 86 62 45
    endloop
  endfacet
  facet normal 0 0 -1
    outer loop
      vertex 98 54 45
      vertex 96 62 45
      vertex 100 54 45
    endloop
  endfacet
  facet normal 0 0 -1
    outer loop
      vertex 102 54 45
      vertex 100 54 45
      vertex 96 62 45
    endloop
  endfacet
  facet normal 0 0 -1
    outer loop
      vertex 102 54 45
      vertex 106 62 45
      vertex 104 54 45
    endloop
  endfacet
  facet normal 0 0 -1
    outer loop
      vertex 102 54 45
      vertex 96 62 45
      vertex 106 62 45
    endloop
  endfacet
  facet normal 0 0 -1
    outer loop
      vertex 104 54 45
      vertex 119 56 45
      vertex 119 44 45
    endloop
  endfacet
  facet normal 0 0 -1
    outer loop
      vertex 106 62 45
      vertex 116 62 45
      vertex 104 54 45
    endloop
  endfacet
  facet normal 0 0 -1
    outer loop
      vertex 106 64 45
      vertex 116 64 45
      vertex 106 62 45
    endloop
  endfacet
  facet normal 0 0 -1
    outer loop
      vertex 116 64 45
      vertex 116 62 45
      vertex 106 62 45
    endloop
  endfacet
  facet normal 0 0 -1
    outer loop
      vertex 104 54 45
      vertex 121 62 45
      vertex 119 56 45
    endloop
  endfacet
  facet normal 0 0 -1
    outer loop
      vertex 121 56 45
      vertex 119 56 45
      vertex 121 62 45
    endloop
  endfacet
  facet normal 0 0 -1
    outer loop
      vertex 121 62 45
      vertex 104 54 45
      vertex 116 62 45
    endloop
  endfacet
  facet normal 0 -1 0
    outer loop
      vertex 90 54 45
      vertex 92 54 45
      vertex 92 54 47
    endloop
  endfacet
  facet normal 0 -1 0
    outer loop
      vertex 94 54 45
      vertex 96 54 45
      vertex 96 54 47
    endloop
  endfacet
  facet normal 0 -1 0
    outer loop
      vertex 98 54 45
      vertex 100 54 45
      vertex 100 54 47
    endloop
  endfacet
  facet normal 0 -1 0
    outer loop
      vertex 102 54 45
      vertex 104 54 45
      vertex 104 54 47
    endloop
  endfacet
  facet normal 1 0 0
    outer loop
      vertex 96 64 45
      vertex 96 64 47
      vertex 96 62 45
    endloop
  endfacet
  facet normal 0 1 0
    outer loop
      vertex 106 62 45
      vertex 96 62 45
      vertex 96 62 47
    endloop
  endfacet
  facet normal 1 0 0
    outer loop
      vertex 119 44 45
      vertex 119 56 45
      vertex 119 56 47
    endloop
  endfacet
  facet normal -1 0 0
    outer loop
      vertex 106 64 45
      vertex 106 62 45
      vertex 106 64 47
    endloop
  endfacet
  facet normal 0 1 0
    outer loop
      vertex 106 64 45
      vertex 106 64 47
      vertex 116 64 45
    endloop
  endfacet
  facet normal 0 -1 0
    outer loop
      vertex 121 56 45
      vertex 119 56 47
      vertex 119 56 45
    endloop
  endfacet
  facet normal 1 0 0
    outer loop
      vertex 116 64 45
      vertex 116 64 47
      vertex 116 62 45
    endloop
  endfacet
  facet normal 1 0 0
    outer loop
      vertex 121 56 45
      vertex 121 62 45
      vertex 121 62 47
    endloop
  endfacet
  facet normal 0 1 0
    outer loop
      vertex 121 62 45
      vertex 116 62 45
      vertex 116 62 47
    endloop
  endfacet
  facet normal -1 0 0
    outer loop
      vertex 60 54 45
      vertex 60 -1 47
      vertex 60 54 47
    endloop
  endfacet
  facet normal -1 0 0
    outer loop
      vertex 64 54 45
      vertex 64 -1 47
      vertex 64 54 47
    endloop
  endfacet
  facet normal -1 0 0
    outer loop
      vertex 68 54 45
      vertex 68 -1 47
      vertex 68 54 47
    endloop
  endfacet
  facet normal -1 0 0
    outer loop
      vertex 72 54 45
      vertex 72 -1 47
      vertex 72 54 47
    endloop
  endfacet
  facet normal -1 0 0
    outer loop
      vertex 76 54 45
      vertex 76 -1 47
      vertex 76 54 47
    endloop
  endfacet
  facet normal -1 0 0
    outer loop
      vertex 80 54 45
      vertex 80 -1 47
      vertex 80 54 47
    endloop
  endfacet
  facet normal -1 0 0
    outer loop
      vertex 84 54 45
      vertex 84 -1 47
      vertex 84 54 47
    endloop
  endfacet
  facet normal -1 0 0
    outer loop
      vertex 88 54 45
      vertex 88 -1 47
      vertex 88 54 47
    endloop
  endfacet
  facet normal 0 0 1
    outer loop
      vertex 60 -1 47
      vertex 62 54 47
      vertex 60 54 47
    endloop
  endfacet
  facet normal 0 0 1
    outer loop
      vertex 64 -1 47
      vertex 66 54 47
      vertex 64 54 47
    endloop
  endfacet
  facet normal 0 0 1
    outer loop
      vertex 68 -1 47
      vertex 70 54 47
      vertex 68 54 47
    endloop
  endfacet
  facet normal 0 0 1
    outer loop
      vertex 72 -1 47
      vertex 74 54 47
      vertex 72 54 47
    endloop
  endfacet
  facet normal 0 0 1
    outer loop
      vertex 76 -1 47
      vertex 78 54 47
      vertex 76 54 47
    endloop
  endfacet
  facet normal 0 0 1
    outer loop
      vertex 80 -1 47
      vertex 82 54 47
      vertex 80 54 47
    endloop
  endfacet
  facet normal 0 0 1
    outer loop
      vertex 84 -1 47
      vertex 86 54 47
      vertex 84 54 47
    endloop
  endfacet
  facet normal 0 0 1
    outer loop
      vertex 88 -1 47
      vertex 90 54 47
      vertex 88 54 47
    endloop
  endfacet
  facet normal 0 -1 0
    outer loop
      vertex 62 54 45
      vertex 64 54 47
      vertex 62 54 47
    endloop
  endfacet
  facet normal 0 -1 0
    outer loop
      vertex 66 54 45
      vertex 68 54 47
      vertex 66 54 47
    endloop
  endfacet
  facet normal 0 -1 0
    outer loop
      vertex 70 54 45
      vertex 72 54 47
      vertex 70 54 47
    endloop
  endfacet
  facet normal 0 -1 0
    outer loop
      vertex 74 54 45
      vertex 76 54 47
      vertex 74 54 47
    endloop
  endfacet
  facet normal 0 1 0
    outer loop
      vertex 66 62 45
      vertex 56 62 47
      vertex 66 62 47
    endloop
  endfacet
  facet normal -1 0 0
    outer loop
      vertex 66 64 47
      vertex 66 62 45
      vertex 66 62 47
    endloop
  endfacet
  facet normal 0 1 0
    outer loop
      vertex 66 64 47
      vertex 76 64 47
      vertex 76 64 45
    endloop
  endfacet
  facet normal 0 -1 0
    outer loop
      vertex 78 54 45
      vertex 80 54 47
      vertex 78 54 47
    endloop
  endfacet
  facet normal 0 -1 0
    outer loop
      vertex 82 54 45
      vertex 84 54 47
      vertex 82 54 47
    endloop
  endfacet
  facet normal 0 -1 0
    outer loop
      vertex 86 54 45
      vertex 88 54 47
      vertex 86 54 47
    endloop
  endfacet
  facet normal 1 0 0
    outer loop
      vertex 76 62 45
      vertex 76 64 47
      vertex 76 62 47
    endloop
  endfacet
  facet normal 0 1 0
    outer loop
      vertex 86 62 45
      vertex 76 62 47
      vertex 86 62 47
    endloop
  endfacet
  facet normal -1 0 0
    outer loop
      vertex 86 64 47
      vertex 86 62 45
      vertex 86 62 47
    endloop
  endfacet
  facet normal 0 0 1
    outer loop
      vertex 62 54 47
      vertex 64 54 47
      vertex 66 62 47
    endloop
  endfacet
  facet normal 0 0 1
    outer loop
      vertex 64 54 47
      vertex 66 54 47
      vertex 66 62 47
    endloop
  endfacet
  facet normal 0 0 1
    outer loop
      vertex 66 54 47
      vertex 68 54 47
      vertex 66 62 47
    endloop
  endfacet
  facet normal 0 0 1
    outer loop
      vertex 62 54 47
      vertex 66 62 47
      vertex 56 62 47
    endloop
  endfacet
  facet normal 0 0 1
    outer loop
      vertex 68 54 47
      vertex 70 54 47
      vertex 66 62 47
    endloop
  endfacet
  facet normal 0 0 1
    outer loop
      vertex 70 54 47
      vertex 72 54 47
      vertex 76 62 47
    endloop
  endfacet
  facet normal 0 0 1
    outer loop
      vertex 72 54 47
      vertex 74 54 47
      vertex 76 62 47
    endloop
  endfacet
  facet normal 0 0 1
    outer loop
      vertex 66 62 47
      vertex 70 54 47
      vertex 76 62 47
    endloop
  endfacet
  facet normal 0 0 1
    outer loop
      vertex 66 64 47
      vertex 66 62 47
      vertex 76 62 47
    endloop
  endfacet
  facet normal 0 0 1
    outer loop
      vertex 66 64 47
      vertex 76 62 47
      vertex 76 64 47
    endloop
  endfacet
  facet normal 0 0 1
    outer loop
      vertex 74 54 47
      vertex 76 54 47
      vertex 76 62 47
    endloop
  endfacet
  facet normal 0 0 1
    outer loop
      vertex 76 54 47
      vertex 78 54 47
      vertex 76 62 47
    endloop
  endfacet
  facet normal 0 0 1
    outer loop
      vertex 78 54 47
      vertex 80 54 47
      vertex 76 62 47
    endloop
  endfacet
  facet normal 0 0 1
    outer loop
      vertex 80 54 47
      vertex 82 54 47
      vertex 76 62 47
    endloop
  endfacet
  facet normal 0 0 1
    outer loop
      vertex 82 54 47
      vertex 86 62 47
      vertex 76 62 47
    endloop
  endfacet
  facet normal 0 0 1
    outer loop
      vertex 82 54 47
      vertex 84 54 47
      vertex 86 62 47
    endloop
  endfacet
  facet normal 0 0 1
    outer loop
      vertex 84 54 47
      vertex 86 54 47
      vertex 86 62 47
    endloop
  endfacet
  facet normal 0 0 1
    outer loop
      vertex 86 62 47
      vertex 86 54 47
      vertex 88 54 47
    endloop
  endfacet
  facet normal 0 0 1
    outer loop
      vertex 88 54 47
      vertex 90 54 47
      vertex 86 62 47
    endloop
  endfacet
  facet normal 0 0 1
    outer loop
      vertex 86 64 47
      vertex 86 62 47
      vertex 96 62 47
    endloop
  endfacet
  facet normal -1 0 0
    outer loop
      vertex 92 54 45
      vertex 92 -1 47
      vertex 92 54 47
    endloop
  endfacet
  facet normal -1 0 0
    outer loop
      vertex 96 54 45
      vertex 96 -1 47
      vertex 96 54 47
    endloop
  endfacet
  facet normal -1 0 0
    outer loop
      vertex 100 54 45
      vertex 100 -1 47
      vertex 100 54 47
    endloop
  endfacet
  facet normal -1 0 0
    outer loop
      vertex 104 54 45
      vertex 104 -1 47
      vertex 104 54 47
    endloop
  endfacet
  facet normal 0 -1 0
    outer loop
      vertex 121 34 47
      vertex 119 34 47
      vertex 121 34 45
    endloop
  endfacet
  facet normal 1 0 0
    outer loop
      vertex 121 34 47
      vertex 121 34 45
      vertex 121 44 47
    endloop
  endfacet
  facet normal 0 1 0
    outer loop
      vertex 119 44 47
      vertex 121 44 47
      vertex 119 44 45
    endloop
  endfacet
  facet normal 0 0 1
    outer loop
      vertex 92 -1 47
      vertex 94 54 47
      vertex 92 54 47
    endloop
  endfacet
  facet normal 0 0 1
    outer loop
      vertex 96 -1 47
      vertex 98 54 47
      vertex 96 54 47
    endloop
  endfacet
  facet normal 0 0 1
    outer loop
      vertex 100 -1 47
      vertex 102 54 47
      vertex 100 54 47
    endloop
  endfacet
  facet normal 0 0 1
    outer loop
      vertex 104 -1 47
      vertex 119 44 47
      vertex 119 56 47
    endloop
  endfacet
  facet normal 0 0 1
    outer loop
      vertex 104 -1 47
      vertex 119 56 47
      vertex 104 54 47
    endloop
  endfacet
  facet normal 0 0 1
    outer loop
      vertex 121 34 47
      vertex 121 44 47
      vertex 119 34 47
    endloop
  endfacet
  facet normal 0 0 1
    outer loop
      vertex 119 34 47
      vertex 121 44 47
      vertex 119 44 47
    endloop
  endfacet
  facet normal 0 -1 0
    outer loop
      vertex 90 54 45
      vertex 92 54 47
      vertex 90 54 47
    endloop
  endfacet
  facet normal 0 -1 0
    outer loop
      vertex 94 54 45
      vertex 96 54 47
      vertex 94 54 47
    endloop
  endfacet
  facet normal 0 -1 0
    outer loop
      vertex 98 54 45
      vertex 100 54 47
      vertex 98 54 47
    endloop
  endfacet
  facet normal 0 -1 0
    outer loop
      vertex 102 54 45
      vertex 104 54 47
      vertex 102 54 47
    endloop
  endfacet
  facet normal 0 1 0
    outer loop
      vertex 86 64 47
      vertex 96 64 47
      vertex 96 64 45
    endloop
  endfacet
  facet normal 1 0 0
    outer loop
      vertex 96 62 45
      vertex 96 64 47
      vertex 96 62 47
    endloop
  endfacet
  facet normal 0 1 0
    outer loop
      vertex 106 62 45
      vertex 96 62 47
      vertex 106 62 47
    endloop
  endfacet
  facet normal 1 0 0
    outer loop
      vertex 119 44 45
      vertex 119 56 47
      vertex 119 44 47
    endloop
  endfacet
  facet normal -1 0 0
    outer loop
      vertex 106 64 47
      vertex 106 62 45
      vertex 106 62 47
    endloop
  endfacet
  facet normal 0 1 0
    outer loop
      vertex 106 64 47
      vertex 116 64 47
      vertex 116 64 45
    endloop
  endfacet
  facet normal 0 -1 0
    outer loop
      vertex 121 56 47
      vertex 119 56 47
      vertex 121 56 45
    endloop
  endfacet
  facet normal 1 0 0
    outer loop
      vertex 121 56 47
      vertex 121 56 45
      vertex 121 62 47
    endloop
  endfacet
  facet normal 1 0 0
    outer loop
      vertex 116 62 45
      vertex 116 64 47
      vertex 116 62 47
    endloop
  endfacet
  facet normal 0 1 0
    outer loop
      vertex 121 62 45
      vertex 116 62 47
      vertex 121 62 47
    endloop
  endfacet
  facet normal 0 0 1
    outer loop
      vertex 90 54 47
      vertex 92 54 47
      vertex 96 62 47
    endloop
  endfacet
  facet normal 0 0 1
    outer loop
      vertex 92 54 47
      vertex 94 54 47
      vertex 96 62 47
    endloop
  endfacet
  facet normal 0 0 1
    outer loop
      vertex 94 54 47
      vertex 96 54 47
      vertex 96 62 47
    endloop
  endfacet
  facet normal 0 0 1
    outer loop
      vertex 96 54 47
      vertex 98 54 47
      vertex 96 62 47
    endloop
  endfacet
  facet normal 0 0 1
    outer loop
      vertex 86 62 47
      vertex 90 54 47
      vertex 96 62 47
    endloop
  endfacet
  facet normal 0 0 1
    outer loop
      vertex 86 64 47
      vertex 96 62 47
      vertex 96 64 47
    endloop
  endfacet
  facet normal 0 0 1
    outer loop
      vertex 98 54 47
      vertex 100 54 47
      vertex 96 62 47
    endloop
  endfacet
  facet normal 0 0 1
    outer loop
      vertex 100 54 47
      vertex 102 54 47
      vertex 96 62 47
    endloop
  endfacet
  facet normal 0 0 1
    outer loop
      vertex 102 54 47
      vertex 104 54 47
      vertex 106 62 47
    endloop
  endfacet
  facet normal 0 0 1
    outer loop
      vertex 102 54 47
      vertex 106 62 47
      vertex 96 62 47
    endloop
  endfacet
  facet normal 0 0 1
    outer loop
      vertex 104 54 47
      vertex 119 56 47
      vertex 106 62 47
    endloop
  endfacet
  facet normal 0 0 1
    outer loop
      vertex 106 64 47
      vertex 106 62 47
      vertex 116 62 47
    endloop
  endfacet
  facet normal 0 0 1
    outer loop
      vertex 106 64 47
      vertex 116 62 47
      vertex 116 64 47
    endloop
  endfacet
  facet normal 0 0 1
    outer loop
      vertex 121 56 47
      vertex 121 62 47
      vertex 119 56 47
    endloop
  endfacet
  facet normal 0 0 1
    outer loop
      vertex 106 62 47
      vertex 119 56 47
      vertex 116 62 47
    endloop
  endfacet
  facet normal 0 0 1
    outer loop
      vertex 121 62 47
      vertex 116 62 47
      vertex 119 56 47
    endloop
  endfacet
endsolid OpenSCAD_Model
